<svg width="366" height="244" viewBox="0 0 366 244" fill="none" xmlns="http://www.w3.org/2000/svg">
<g opacity="0.5">
<path opacity="0.5" d="M90.8756 178.482L15.728 164.398C14.4021 164.153 13.1377 163.649 12.0074 162.914C10.877 162.179 9.90306 161.228 9.14146 160.115C8.37986 159.003 7.84564 157.751 7.56948 156.431C7.29333 155.111 7.28069 153.75 7.5323 152.425L27.7379 44.5136C28.2494 41.8494 29.7978 39.4974 32.0429 37.9745C34.288 36.4516 37.046 35.8825 39.7105 36.3923L101.211 47.9091C103.848 48.4175 106.183 49.9322 107.723 52.1326L118.886 68.1147C119.663 69.2333 120.211 70.4951 120.497 71.827C120.783 73.1588 120.801 74.5341 120.551 75.8732L102.876 170.315C102.628 171.641 102.121 172.905 101.383 174.034C100.644 175.164 99.6902 176.136 98.5749 176.895C97.4595 177.654 96.2051 178.185 94.8838 178.457C93.5624 178.73 92.2002 178.738 90.8756 178.482Z" fill="#A5CEFF"/>
</g>
<path d="M103.518 172.557H27.068C24.354 172.557 21.7512 171.479 19.8321 169.56C17.9131 167.641 16.835 165.038 16.835 162.324V52.5514C16.835 49.8375 17.9131 47.2346 19.8321 45.3156C21.7512 43.3965 24.354 42.3184 27.068 42.3184H89.6289C92.3173 42.311 94.9017 43.3562 96.8293 45.2302L110.69 58.8866C111.659 59.8357 112.431 60.9671 112.961 62.2156C113.491 63.4641 113.769 64.805 113.779 66.1613V162.259C113.787 163.61 113.528 164.95 113.016 166.201C112.504 167.452 111.749 168.589 110.795 169.547C109.841 170.504 108.707 171.263 107.458 171.78C106.209 172.296 104.87 172.561 103.518 172.557Z" fill="#A5CEFF"/>
<path d="M113.481 61.9007H100.271C98.6244 61.9007 97.0452 61.2473 95.88 60.0839C94.7149 58.9205 94.0591 57.3423 94.0566 55.6958V42.4766L113.481 61.9007Z" fill="#0A7AFF"/>
<path d="M49.1445 90.814V81.8741H53.2656C53.3988 81.8636 53.5325 81.8636 53.6657 81.8741C54.1412 81.9352 54.5929 82.1178 54.9774 82.4043C55.3169 82.6667 55.5776 83.0175 55.7309 83.4183C55.8966 83.8549 55.9786 84.3189 55.9727 84.7858C55.9919 85.4673 55.7967 86.1376 55.4146 86.7022C55.2077 86.9792 54.9454 87.21 54.6442 87.3798C54.343 87.5496 54.0098 87.6547 53.6657 87.6883H52.9214H50.8283V90.721L49.1445 90.814ZM50.8283 86.1626H52.847H53.1261C53.2216 86.1776 53.3189 86.1776 53.4145 86.1626C53.6191 86.1132 53.804 86.0029 53.9447 85.8463C54.0636 85.7045 54.1523 85.5399 54.2052 85.3626C54.248 85.1954 54.2699 85.0235 54.2703 84.8509C54.271 84.6783 54.2491 84.5063 54.2052 84.3393C54.1536 84.1558 54.065 83.9849 53.9447 83.8369C53.804 83.6804 53.6191 83.5701 53.4145 83.5207C53.3203 83.4947 53.2236 83.4791 53.1261 83.4741H52.847H50.8283V86.1626ZM54.1866 90.814L52.4191 87.1766L54.1587 86.8417L56.103 90.814H54.1866Z" fill="white"/>
<path d="M59.9627 91.0091C59.517 91.0268 59.0736 90.9375 58.6696 90.7486C58.3623 90.5863 58.0977 90.3536 57.8974 90.0695C57.7205 89.8079 57.5884 89.5187 57.5067 89.2137C57.4288 88.9502 57.3819 88.6786 57.3672 88.4043C57.3672 88.1624 57.3672 87.9857 57.3672 87.8741V84.153H59.0789V87.3252C59.0789 87.474 59.0789 87.6694 59.0789 87.9113C59.0968 88.1564 59.1501 88.3977 59.237 88.6276C59.3187 88.8636 59.4635 89.0727 59.6557 89.2323C59.8987 89.4066 60.1943 89.492 60.4929 89.4741C60.6506 89.4706 60.8071 89.4456 60.958 89.3997C61.132 89.3521 61.2917 89.2626 61.4232 89.1392C61.5868 88.9774 61.711 88.78 61.786 88.5625C61.8886 88.2378 61.9358 87.8981 61.9255 87.5578L62.8558 88.0136C62.8575 88.5306 62.7464 89.0417 62.5302 89.5113C62.3293 89.9623 62.0073 90.3487 61.5999 90.6277C61.1033 90.9125 60.534 91.0451 59.9627 91.0091ZM62.1302 90.8137V88.5904H61.9255V84.1064H63.6186V90.8137H62.1302Z" fill="white"/>
<path d="M65.4902 90.8135V81.6875H67.174V90.8135H65.4902Z" fill="white"/>
<path d="M72.158 90.9998C71.5092 91.0188 70.867 90.8647 70.2975 90.5533C69.7825 90.2695 69.3572 89.8474 69.0695 89.3346C68.7655 88.7892 68.6114 88.1729 68.623 87.5485C68.609 86.8835 68.7592 86.2253 69.0602 85.6321C69.3335 85.1085 69.7496 84.6731 70.2602 84.3763C70.7931 84.0653 71.4016 83.9075 72.0185 83.9204C72.6542 83.9008 73.2807 84.076 73.8139 84.4228C74.3162 84.76 74.6976 85.2489 74.9023 85.8182C75.1538 86.4919 75.24 87.2161 75.1535 87.9299H73.479V87.3159C73.5246 86.8012 73.411 86.2848 73.1534 85.8368C73.0271 85.6808 72.8642 85.5584 72.6792 85.4805C72.4942 85.4026 72.2928 85.3716 72.0929 85.3903C71.8543 85.3696 71.6143 85.4061 71.3927 85.4967C71.171 85.5873 70.9742 85.7294 70.8184 85.9112C70.5195 86.3717 70.379 86.9172 70.4184 87.4648C70.3834 87.977 70.5246 88.4857 70.8184 88.9067C70.9637 89.0814 71.148 89.2196 71.3564 89.3101C71.5648 89.4006 71.7916 89.4408 72.0185 89.4277C72.3162 89.4359 72.6101 89.3584 72.865 89.2044C73.1072 89.06 73.2964 88.8415 73.4046 88.5811L75.0977 89.0649C74.8642 89.6578 74.4426 90.1579 73.8976 90.4882C73.3783 90.821 72.7748 90.9985 72.158 90.9998ZM69.9347 87.9299V86.6741H74.4093V87.9299H69.9347Z" fill="white"/>
<path d="M79.2093 90.9995C78.4823 91.0374 77.763 90.8347 77.1627 90.4227C76.9066 90.2295 76.6922 89.9865 76.5323 89.7083C76.3725 89.4302 76.2705 89.1226 76.2324 88.804L77.9627 88.5435C78.0169 88.8395 78.1836 89.1029 78.4279 89.2785C78.7004 89.467 79.027 89.5617 79.3581 89.5482C79.6067 89.5666 79.8545 89.5046 80.0652 89.3715C80.1456 89.3176 80.2109 89.244 80.2549 89.1576C80.2989 89.0713 80.32 88.9752 80.3163 88.8784C80.3197 88.7615 80.2837 88.6468 80.214 88.5528C80.0884 88.4422 79.9387 88.3625 79.7768 88.3203C79.5442 88.2365 79.1907 88.1342 78.707 88.004C78.254 87.8975 77.8141 87.7415 77.3953 87.5388C77.106 87.4112 76.8621 87.1989 76.6961 86.9298C76.53 86.6607 76.4494 86.3476 76.465 86.0318C76.4542 85.6334 76.5716 85.2421 76.7999 84.9155C77.0303 84.5837 77.3541 84.3279 77.7302 84.1806C78.1783 83.9965 78.6599 83.9078 79.1442 83.9201C79.6204 83.912 80.0939 83.9941 80.5396 84.1619C80.9216 84.3036 81.261 84.5406 81.5257 84.8503C81.7801 85.1514 81.9416 85.5198 81.9908 85.9109L80.2605 86.2178C80.2524 86.1033 80.22 85.9918 80.1654 85.8908C80.1109 85.7897 80.0355 85.7014 79.9442 85.6318C79.7242 85.4851 79.4708 85.3963 79.2074 85.3735C78.944 85.3507 78.6791 85.3948 78.4372 85.5015C78.3515 85.5406 78.2788 85.6035 78.2277 85.6826C78.1765 85.7618 78.1492 85.8539 78.1488 85.9481C78.1493 86.0564 78.1928 86.1601 78.2697 86.2365C78.4191 86.3503 78.59 86.4326 78.7721 86.4783C79.0326 86.562 79.4233 86.6737 79.9442 86.8039C80.3715 86.9067 80.784 87.063 81.1722 87.2691C81.4493 87.4144 81.6811 87.6332 81.842 87.9017C81.99 88.1722 82.0638 88.4771 82.0559 88.7854C82.0683 89.0961 82.0074 89.4054 81.8781 89.6882C81.7489 89.971 81.5548 90.2195 81.3117 90.4134C80.6982 90.8427 79.9564 91.0495 79.2093 90.9995Z" fill="white"/>
<path d="M91.7228 104.414H33.0131C32.8281 104.414 32.6506 104.34 32.5198 104.21C32.3889 104.079 32.3154 103.901 32.3154 103.716C32.3154 103.531 32.3889 103.354 32.5198 103.223C32.6506 103.092 32.8281 103.019 33.0131 103.019H91.7228C91.9078 103.019 92.0853 103.092 92.2161 103.223C92.347 103.354 92.4205 103.531 92.4205 103.716C92.4205 103.901 92.347 104.079 92.2161 104.21C92.0853 104.34 91.9078 104.414 91.7228 104.414Z" fill="white"/>
<path d="M91.7228 119.81H33.0131C32.8281 119.81 32.6506 119.737 32.5198 119.606C32.3889 119.475 32.3154 119.298 32.3154 119.113C32.3154 118.928 32.3889 118.75 32.5198 118.619C32.6506 118.489 32.8281 118.415 33.0131 118.415H91.7228C91.9078 118.415 92.0853 118.489 92.2161 118.619C92.347 118.75 92.4205 118.928 92.4205 119.113C92.4205 119.298 92.347 119.475 92.2161 119.606C92.0853 119.737 91.9078 119.81 91.7228 119.81Z" fill="white"/>
<path d="M80.5781 135.197H33.0131C32.8281 135.197 32.6506 135.124 32.5198 134.993C32.3889 134.862 32.3154 134.685 32.3154 134.499C32.3154 134.314 32.3889 134.137 32.5198 134.006C32.6506 133.875 32.8281 133.802 33.0131 133.802H80.5781C80.7631 133.802 80.9406 133.875 81.0714 134.006C81.2023 134.137 81.2758 134.314 81.2758 134.499C81.2758 134.685 81.2023 134.862 81.0714 134.993C80.9406 135.124 80.7631 135.197 80.5781 135.197Z" fill="white"/>
<path d="M66.3542 150.593H33.0131C32.8281 150.593 32.6506 150.519 32.5198 150.388C32.3889 150.257 32.3154 150.08 32.3154 149.895C32.3154 149.71 32.3889 149.532 32.5198 149.402C32.6506 149.271 32.8281 149.197 33.0131 149.197H66.3542C66.5392 149.197 66.7167 149.271 66.8475 149.402C66.9784 149.532 67.0519 149.71 67.0519 149.895C67.0519 150.08 66.9784 150.257 66.8475 150.388C66.7167 150.519 66.5392 150.593 66.3542 150.593Z" fill="white"/>
<path d="M54.5758 57.0078H75.5814C75.9227 57.0103 76.2492 57.1476 76.4897 57.3898C76.7302 57.6321 76.8652 57.9596 76.8651 58.3009V72.1062C76.8652 72.45 76.7292 72.7798 76.487 73.0238C76.2447 73.2678 75.9159 73.4061 75.5721 73.4085H54.5758C54.2336 73.4037 53.9071 73.2643 53.6669 73.0206C53.4266 72.7769 53.292 72.4484 53.292 72.1062V58.3009C53.292 57.9596 53.4269 57.6321 53.6674 57.3898C53.9079 57.1476 54.2344 57.0103 54.5758 57.0078Z" fill="#FF9933"/>
<path d="M53.292 62.4678H76.8651V67.9378H53.292V62.4678Z" fill="white"/>
<path d="M53.292 67.9375H76.8651V72.1051C76.8652 72.4489 76.7292 72.7788 76.487 73.0228C76.2447 73.2668 75.9159 73.4051 75.5721 73.4075H54.5758C54.2336 73.4026 53.9071 73.2633 53.6669 73.0195C53.4266 72.7758 53.292 72.4473 53.292 72.1051V67.9375Z" fill="#128807"/>
<g opacity="0.5">
<path opacity="0.5" d="M66.8466 65.2314C66.8466 64.8818 66.7429 64.5401 66.5487 64.2494C66.3545 63.9587 66.0784 63.7322 65.7554 63.5984C65.4325 63.4646 65.0771 63.4296 64.7342 63.4978C64.3914 63.566 64.0764 63.7344 63.8292 63.9816C63.582 64.2288 63.4137 64.5437 63.3455 64.8866C63.2773 65.2294 63.3123 65.5848 63.4461 65.9078C63.5799 66.2308 63.8064 66.5068 64.0971 66.701C64.3877 66.8953 64.7295 66.9989 65.079 66.9989C65.3112 66.9989 65.541 66.9532 65.7554 66.8644C65.9699 66.7755 66.1647 66.6454 66.3289 66.4812C66.493 66.3171 66.6232 66.1222 66.712 65.9078C66.8009 65.6933 66.8466 65.4635 66.8466 65.2314Z" fill="#000088"/>
</g>
<path d="M116.393 237.071V159.003L86.624 156.909C86.624 156.909 87.7404 114.74 114.83 100.637L144.18 87.0458C144.18 87.0458 143.975 102.33 169.391 99.3998C169.391 99.3998 187.717 97.8649 189.14 86.376L212.583 95.8648C212.583 95.8648 248.362 106.182 250.306 149.551L219.421 157.161L222.081 237.043L116.393 237.071Z" fill="#2B88F7"/>
<path d="M176.629 66.3284C176.629 66.3284 171.736 69.7797 167.27 70.6356C162.805 71.4914 158.47 68.896 158.414 68.8681L153.205 65.8633L151.074 94.4506L151.651 94.9251C155.321 97.952 159.922 99.6228 164.679 99.6567C169.436 99.6906 174.06 98.0854 177.773 95.1111L178.889 94.1808L176.629 66.3284Z" fill="#DB8578"/>
<path d="M152.405 83.2785L144.209 86.9996C144.209 86.9996 144.125 100.74 166.387 100.023C189.225 99.2978 189.169 86.3577 189.169 86.3577L177.913 82.6924L152.405 83.2785Z" fill="#DB8578"/>
<path d="M215.654 151.384C215.654 151.384 221.571 193.246 222.445 198.381C222.445 198.381 217.794 201.73 207.682 202.474C207.682 202.474 200.993 197.572 194.062 201.47C194.062 201.47 193.318 203.274 196.853 204.995C200.388 206.716 207.272 211.396 205.226 218.949L203.719 226.01C203.719 226.01 202.63 230.299 207.961 230.448C207.961 230.448 211.086 231.108 212.612 226.094L214.017 222.122C214.017 222.122 240.995 222.838 248.558 209.098C248.558 209.098 250.418 206.419 250.13 201.088L248.074 148.062L215.654 151.384Z" fill="#DB8578"/>
<path d="M250.334 149.579L217.384 156.184L215.812 131.559C215.812 131.559 243.776 128.489 250.334 149.579Z" fill="#2B88F7"/>
<g style="mix-blend-mode:multiply" opacity="0.5">
<g style="mix-blend-mode:multiply" opacity="0.5">
<path d="M248.231 150.175L219.765 170.911L217.281 156.008L248.231 150.175Z" fill="#DB8578"/>
</g>
</g>
<g style="mix-blend-mode:multiply" opacity="0.5">
<g style="mix-blend-mode:multiply" opacity="0.5">
<path d="M165.008 84.1432C171.919 84.1432 177.52 80.4864 177.52 75.9754C177.52 71.4645 171.919 67.8076 165.008 67.8076C158.098 67.8076 152.496 71.4645 152.496 75.9754C152.496 80.4864 158.098 84.1432 165.008 84.1432Z" fill="#DB8578"/>
</g>
</g>
<path d="M183.782 217.303C183.717 213.777 183.782 210.252 183.727 206.726V201.442L183.829 196.158C183.829 194.4 183.829 192.632 183.829 190.865C183.822 189.107 183.937 187.351 184.173 185.609C184.406 183.86 184.713 182.111 185.103 180.38C185.486 178.614 186.003 176.878 186.648 175.189H187.038C187.441 176.947 187.714 178.732 187.857 180.529C188.006 182.306 188.071 184.074 188.062 185.832C188.054 187.593 187.93 189.352 187.69 191.097C187.429 192.837 187.159 194.586 186.955 196.335L186.313 201.581L185.624 206.819C185.131 210.307 184.694 213.805 184.136 217.294L183.782 217.303Z" fill="#011E3B"/>
<path d="M162.369 213.145L157.717 216.624C157.717 216.624 157.029 222.122 162.908 226.224L164.629 224.522L162.369 213.145Z" fill="#98CFE5"/>
<path d="M218.109 186.223L155.586 186.818C155.172 186.822 154.762 186.744 154.378 186.589C153.995 186.434 153.645 186.204 153.351 185.914C153.056 185.623 152.822 185.278 152.661 184.897C152.5 184.515 152.416 184.106 152.413 183.693C152.41 183.461 152.435 183.23 152.488 183.004L159.558 150.389C159.71 149.683 160.101 149.051 160.666 148.6C161.23 148.149 161.933 147.907 162.656 147.914L226.78 148.51C227.191 148.512 227.598 148.596 227.978 148.755C228.357 148.915 228.702 149.148 228.991 149.441C229.28 149.734 229.509 150.081 229.664 150.462C229.82 150.843 229.898 151.252 229.896 151.663C229.889 151.94 229.848 152.215 229.775 152.482L221.105 183.925C220.923 184.582 220.532 185.161 219.992 185.575C219.451 185.99 218.791 186.217 218.109 186.223Z" fill="#011E3B"/>
<path d="M197.337 193.013H176.964C176.493 193.013 176.041 192.826 175.708 192.493C175.375 192.159 175.188 191.707 175.188 191.236C175.188 191.095 175.207 190.954 175.243 190.818L182.155 162.602C182.249 162.206 182.478 161.854 182.802 161.606C183.125 161.359 183.525 161.231 183.932 161.244L204.305 161.793C204.775 161.805 205.22 162.003 205.545 162.343C205.869 162.683 206.045 163.137 206.035 163.607C206.026 163.738 206.007 163.869 205.98 163.998L199.068 191.673C198.972 192.059 198.749 192.4 198.435 192.643C198.121 192.886 197.734 193.016 197.337 193.013Z" fill="white"/>
<path d="M207.951 152.435H187.392C187.009 152.432 186.636 152.31 186.325 152.087C186.013 151.864 185.778 151.55 185.652 151.189L183.978 146.193C183.928 146.05 183.908 145.898 183.917 145.746C183.927 145.595 183.967 145.447 184.035 145.311C184.102 145.175 184.196 145.054 184.311 144.955C184.426 144.855 184.559 144.78 184.703 144.733C184.821 144.696 184.943 144.677 185.066 144.677H204.974C205.334 144.674 205.687 144.778 205.987 144.977C206.287 145.176 206.52 145.46 206.658 145.793L208.862 151.096C208.957 151.339 208.951 151.609 208.846 151.848C208.742 152.087 208.547 152.275 208.304 152.37C208.192 152.415 208.072 152.437 207.951 152.435Z" fill="white"/>
<path d="M172.608 202.362C173.099 202.795 173.564 203.255 174.004 203.739L174.655 204.446L175.241 205.181C175.436 205.433 175.654 205.667 175.892 205.879C176.004 205.986 176.093 206.114 176.154 206.256C176.215 206.399 176.246 206.552 176.246 206.707C176.246 207.067 176.177 207.424 176.041 207.758C175.967 207.962 175.874 208.158 175.762 208.344C175.621 208.573 175.462 208.79 175.288 208.995L174.925 209.172C174.649 209.138 174.375 209.085 174.106 209.014C173.898 208.951 173.696 208.87 173.502 208.772C173.17 208.632 172.871 208.423 172.627 208.158C172.52 208.047 172.437 207.915 172.381 207.772C172.325 207.628 172.298 207.475 172.301 207.321C172.329 206.996 172.329 206.669 172.301 206.344L172.218 205.414V204.483C172.218 203.832 172.218 203.181 172.274 202.53L172.608 202.362Z" fill="white"/>
<path d="M199.643 200.428C199.756 201.071 199.837 201.72 199.885 202.372L199.941 203.302V204.233C199.953 204.545 199.987 204.856 200.043 205.163C200.081 205.471 199.998 205.781 199.811 206.028C199.591 206.313 199.316 206.551 199.001 206.726C198.816 206.843 198.62 206.943 198.415 207.023C198.157 207.121 197.893 207.202 197.624 207.265L197.252 207.154C197.06 206.947 196.88 206.73 196.713 206.502C196.584 206.324 196.471 206.134 196.378 205.935C196.211 205.617 196.106 205.269 196.071 204.912C196.056 204.758 196.072 204.603 196.118 204.456C196.165 204.309 196.24 204.173 196.341 204.056C196.563 203.816 196.768 203.562 196.955 203.293L197.448 202.512L198.015 201.739C198.403 201.212 198.823 200.709 199.271 200.232L199.643 200.428Z" fill="white"/>
<g style="mix-blend-mode:multiply" opacity="0.5">
<g style="mix-blend-mode:multiply" opacity="0.5">
<path d="M165.018 152.109H179.298C179.526 152.111 179.752 152.157 179.963 152.245C180.173 152.334 180.365 152.463 180.525 152.625C180.686 152.788 180.813 152.98 180.899 153.192C180.986 153.403 181.029 153.63 181.028 153.858C181.029 154.089 180.983 154.317 180.893 154.53C180.804 154.742 180.673 154.935 180.507 155.096C175.716 159.747 167.102 169.385 164.004 181.32C163.913 181.691 163.7 182.02 163.4 182.256C163.1 182.492 162.73 182.621 162.348 182.622H158.134C157.673 182.622 157.23 182.439 156.904 182.113C156.578 181.787 156.395 181.344 156.395 180.883C156.394 180.738 156.413 180.594 156.45 180.455L163.362 153.421C163.455 153.05 163.667 152.72 163.967 152.483C164.266 152.246 164.636 152.114 165.018 152.109Z" fill="#011E3B"/>
</g>
</g>
<path d="M202.945 161.719L187.037 161.393L189.307 152.305H205.54L202.945 161.719Z" fill="white"/>
<path d="M152.488 183.004C153.13 178.213 153.921 173.45 154.805 168.724C155.233 166.343 155.735 163.989 156.181 161.617L157.661 154.537L158.442 151.012L158.656 150.081C158.741 149.7 158.889 149.335 159.093 149.002C159.388 148.494 159.791 148.056 160.273 147.72C160.755 147.384 161.305 147.158 161.884 147.058C162.239 147.01 162.597 146.995 162.954 147.012L164.759 147.067C165.968 147.067 167.177 147.142 168.377 147.188C173.196 147.374 178.015 147.635 182.834 148.119C178.006 148.481 173.187 148.649 168.368 148.77C167.159 148.77 165.959 148.816 164.749 148.826H162.945C162.702 148.818 162.459 148.833 162.219 148.872C162.009 148.916 161.808 148.995 161.624 149.105C161.235 149.295 160.911 149.596 160.693 149.97C160.585 150.155 160.506 150.356 160.461 150.565L160.284 151.43L159.53 154.965L157.949 162.017C157.391 164.361 156.861 166.715 156.265 169.05C155.13 173.71 153.902 178.38 152.488 183.004Z" fill="white"/>
<path d="M219.997 212.336C217.831 211.06 215.558 209.974 213.206 209.089C210.844 208.237 208.421 207.562 205.959 207.07C203.501 206.598 201.015 206.287 198.517 206.14C196.036 206.022 193.555 206.022 191.074 206.14C186.117 206.48 181.201 207.267 176.385 208.494C171.588 209.641 166.898 211.197 162.366 213.145L164.645 224.308C164.659 224.389 164.704 224.46 164.77 224.507C164.836 224.554 164.919 224.573 164.999 224.56C167.232 224.271 169.474 224.039 171.715 223.825C173.957 223.611 176.199 223.406 178.441 223.248C182.925 222.932 187.418 222.699 191.912 222.597C196.405 222.494 200.898 222.597 205.363 222.848C209.806 223.105 214.228 223.646 218.601 224.467H218.713C218.843 224.481 218.975 224.468 219.1 224.427C219.225 224.387 219.34 224.321 219.438 224.233C219.535 224.145 219.613 224.038 219.666 223.918C219.719 223.797 219.746 223.668 219.746 223.536L220.462 213.145C220.463 212.981 220.42 212.82 220.338 212.678C220.256 212.536 220.139 212.418 219.997 212.336Z" fill="#B9E6FB"/>
<path d="M210.547 216.671C211.114 213.182 211.784 209.722 212.407 206.28L213.394 201.089L214.445 195.888C214.789 194.177 215.096 192.428 215.375 190.697C215.698 188.963 216.133 187.25 216.677 185.572C217.226 183.897 217.84 182.241 218.538 180.613C219.227 178.944 220.041 177.33 220.975 175.785L221.347 175.878C221.433 177.681 221.383 179.488 221.199 181.283C221.031 183.06 220.78 184.8 220.454 186.539C220.135 188.268 219.703 189.974 219.161 191.646C218.594 193.312 218.017 194.986 217.505 196.67L215.952 201.721L214.342 206.745C213.217 210.094 212.147 213.452 210.984 216.782L210.547 216.671Z" fill="#011E3B"/>
<path d="M189.307 152.305H195.754L189.307 161.44L187.037 161.393L189.307 152.305Z" fill="#B9E6FB"/>
<path d="M197.335 193.014C192.956 193.262 188.568 193.432 184.171 193.525C181.985 193.581 179.79 193.59 177.594 193.637H176.664C176.294 193.597 175.937 193.473 175.622 193.274C175.308 193.07 175.045 192.796 174.855 192.473C174.664 192.15 174.551 191.787 174.524 191.414C174.505 191.071 174.546 190.728 174.645 190.4L174.831 189.609L175.213 188.009C176.273 183.748 177.343 179.497 178.459 175.255C179.576 171.013 180.794 166.817 182.087 162.594C181.287 166.935 180.407 171.236 179.445 175.497C178.515 179.785 177.492 184.055 176.45 188.316L176.05 189.907C175.908 190.367 175.811 190.841 175.762 191.321C175.773 191.497 175.826 191.669 175.914 191.822C176.003 191.975 176.126 192.106 176.273 192.204C176.423 192.304 176.596 192.365 176.776 192.381H177.557C179.752 192.381 181.948 192.428 184.134 192.493C188.55 192.617 192.95 192.79 197.335 193.014Z" fill="#B9E6FB"/>
<path d="M173.41 217.368C173.01 213.861 172.712 210.345 172.368 206.837L171.912 201.572L171.522 196.297C171.401 194.549 171.196 192.8 171.019 191.032C170.853 189.282 170.804 187.523 170.871 185.767C170.945 184.009 171.084 182.241 171.317 180.483C171.532 178.688 171.883 176.912 172.368 175.171H172.75C173.313 176.885 173.749 178.639 174.052 180.418C174.368 182.148 174.601 183.9 174.75 185.674C174.908 187.427 174.945 189.19 174.861 190.948C174.778 192.716 174.666 194.474 174.62 196.232L174.499 201.516L174.303 206.791C174.126 210.317 174.006 213.842 173.782 217.368H173.41Z" fill="#011E3B"/>
<path d="M166.405 216.959C172.452 215.173 198.518 208.363 218.342 217.192C218.615 217.317 218.842 217.526 218.989 217.789C219.136 218.051 219.196 218.354 219.161 218.652L218.872 221.248C218.828 221.622 218.638 221.963 218.344 222.198C218.05 222.433 217.675 222.543 217.3 222.504H217.244C211.663 221.685 190.555 219.145 167.865 223.155C167.509 223.219 167.141 223.144 166.838 222.945C166.535 222.746 166.32 222.438 166.237 222.085L165.409 218.689C165.315 218.328 165.367 217.944 165.553 217.621C165.739 217.297 166.045 217.059 166.405 216.959Z" fill="white"/>
<path d="M87.8242 145.281L89.1452 201.405C90.1778 210.121 102.885 216.289 111.472 215.815C119.9 215.35 116.281 209.796 115.732 201.163L119.454 146.072L87.8242 145.281Z" fill="#DB8578"/>
<path d="M86.6533 156.91L116.422 159.003L120.329 159.412L123.334 120.992L97.2864 118.415C90.641 130.181 86.9895 143.401 86.6533 156.91Z" fill="#2B88F7"/>
<path d="M118.375 159.97C118.238 159.958 118.11 159.893 118.02 159.789C117.93 159.685 117.884 159.549 117.891 159.412L119.454 136.564C119.468 136.428 119.534 136.302 119.638 136.212C119.741 136.122 119.875 136.075 120.012 136.081C120.149 136.09 120.276 136.153 120.367 136.256C120.457 136.358 120.504 136.493 120.496 136.629L118.924 159.486C118.915 159.623 118.852 159.75 118.749 159.841C118.646 159.931 118.512 159.978 118.375 159.97Z" fill="#392B54"/>
<path d="M120.458 136.63C120.458 136.63 128.756 226.764 142.329 236.634H116.393L116.607 193.116L120.458 136.63Z" fill="#1A53E2"/>
<g style="mix-blend-mode:multiply" opacity="0.5">
<g style="mix-blend-mode:multiply" opacity="0.5">
<path d="M88.1494 157.03L117.983 168.147L118.597 159.17L88.1494 157.03Z" fill="#DB8578"/>
</g>
</g>
<path d="M196.839 45.5968C198.052 41.8637 196.46 38.0008 193.284 36.9688C190.108 35.9368 186.55 38.1266 185.337 41.8597C184.124 45.5928 185.715 49.4557 188.891 50.4877C192.068 51.5197 195.626 49.33 196.839 45.5968Z" fill="#D88577"/>
<path d="M191.858 47.1932C191.807 47.1945 191.756 47.1855 191.709 47.1669C191.661 47.1483 191.618 47.1204 191.582 47.0848C191.545 47.0493 191.516 47.0068 191.497 46.9599C191.477 46.9131 191.467 46.8627 191.467 46.8118C191.467 44.4675 191.969 42.793 192.974 41.8162C193.443 41.3191 194.086 41.0224 194.769 40.9883C194.872 40.9931 194.969 41.0373 195.04 41.1118C195.111 41.1863 195.151 41.2854 195.151 41.3883C195.144 41.4904 195.099 41.5861 195.025 41.6567C194.951 41.7273 194.853 41.7676 194.751 41.7697C194.268 41.8114 193.82 42.0341 193.495 42.393C192.927 42.9605 192.248 44.1884 192.248 46.8025C192.248 46.9061 192.207 47.0055 192.134 47.0788C192.061 47.152 191.961 47.1932 191.858 47.1932Z" fill="#9F361A"/>
<path d="M144.019 50.5126C147.195 49.4807 148.787 45.6178 147.574 41.8846C146.361 38.1515 142.803 35.9618 139.627 36.9937C136.451 38.0257 134.859 41.8886 136.072 45.6217C137.285 49.3549 140.843 51.5446 144.019 50.5126Z" fill="#D88577"/>
<path d="M141.064 47.1932C140.961 47.1932 140.861 47.152 140.788 47.0788C140.715 47.0055 140.674 46.9061 140.674 46.8025C140.674 44.1884 139.994 42.9605 139.427 42.393C139.106 42.0294 138.655 41.8058 138.171 41.7697C138.12 41.771 138.07 41.762 138.022 41.7434C137.975 41.7248 137.932 41.6969 137.895 41.6613C137.859 41.6258 137.83 41.5833 137.81 41.5364C137.791 41.4895 137.78 41.4392 137.78 41.3883C137.778 41.2862 137.815 41.1872 137.885 41.1124C137.954 41.0377 138.051 40.9931 138.153 40.9883C138.834 41.0289 139.475 41.3245 139.948 41.8162C140.953 42.793 141.455 44.4675 141.455 46.8118C141.455 46.8627 141.445 46.9131 141.425 46.9599C141.405 47.0068 141.376 47.0493 141.34 47.0848C141.304 47.1204 141.26 47.1483 141.213 47.1669C141.166 47.1855 141.115 47.1945 141.064 47.1932Z" fill="#9F361A"/>
<path d="M142.535 37.7693C142.535 37.7693 137.744 27.3317 140.144 18.5778C142.544 9.8239 153.27 4.83763 154.693 4.22364C156.117 3.60966 157.549 2.24216 159.177 1.58166C160.805 0.921169 166.508 -0.706811 178.369 3.83293C190.23 8.37267 195.821 19.9732 196.044 27.5549C196.044 27.5549 196.304 30.8109 193.197 36.1507L190.806 40.3834C190.806 40.3834 193.997 77.8735 166.833 77.8735C166.833 77.8735 147.121 80.3294 143.725 56.933C143.707 56.9702 142.209 43.4719 142.535 37.7693Z" fill="#011E3B"/>
<path d="M176.434 55.6485C177.755 61.8442 184.053 56.5788 184.053 56.5788C189.458 53.4903 188.992 43.0061 188.992 43.0061V39.5734C188.992 35.9267 188.723 35.229 188.211 29.6009C187.699 23.9727 183.82 22.0191 183.82 22.0191C171.903 16.3445 160.033 14.8653 155.14 14.2606C150.246 13.656 148.302 18.1864 148.302 18.1864C148.302 18.1864 144.339 24.4937 144.265 36.3547C144.265 36.3547 143.335 51.3879 147.27 54.8485C151.205 58.3091 154.256 60.7371 156.33 56.7091L157.512 54.188C157.512 54.188 157.875 52.4019 162.787 52.4019H172.945C172.945 52.4019 175.652 51.9833 176.434 55.6485Z" fill="#D88577"/>
<path d="M159.66 56.6533H173.745C173.745 56.6533 173.056 59.9558 166.135 59.9558C164.881 59.9073 163.652 59.5868 162.534 59.0166C161.416 58.4464 160.436 57.64 159.66 56.6533Z" fill="#E9696A"/>
<path d="M165.493 49.2204C165.893 48.8576 166.237 48.5599 166.526 48.2901C166.785 48.0346 167.01 47.747 167.196 47.4342C167.366 47.1142 167.503 46.7776 167.605 46.4295C167.707 46.0388 167.8 45.583 167.958 45.0527C168.36 45.4287 168.627 45.9251 168.721 46.4668C168.817 47.0496 168.709 47.6479 168.414 48.1599C168.117 48.6696 167.649 49.0583 167.093 49.2576C166.573 49.4407 166.004 49.4275 165.493 49.2204Z" fill="#B44509"/>
<path d="M158.488 40.3275C158.488 41.5927 157.772 42.6346 156.851 42.6439C155.93 42.6532 155.167 41.6392 155.149 40.3648C155.13 39.0903 155.874 38.067 156.795 38.0577C157.716 38.0484 158.47 39.0624 158.488 40.3275Z" fill="#101010"/>
<path d="M178.87 40.3461C178.87 41.6113 178.135 42.6346 177.215 42.6439C176.294 42.6532 175.54 41.6206 175.54 40.3554C175.54 39.0902 176.275 38.0576 177.196 38.0576C178.117 38.0576 178.87 39.0809 178.87 40.3461Z" fill="#101010"/>
<path d="M161.557 31.1828C161.439 31.226 161.312 31.2417 161.186 31.2288C161.06 31.2159 160.939 31.1747 160.832 31.1084C156.906 28.5781 152.729 31.741 152.552 31.8712C152.381 32.0057 152.163 32.0665 151.947 32.0404C151.73 32.0142 151.533 31.9032 151.399 31.7317C151.264 31.5602 151.203 31.3423 151.23 31.126C151.256 30.9097 151.367 30.7126 151.538 30.5781C151.752 30.4107 156.804 26.5687 161.715 29.7223C161.898 29.8406 162.027 30.0259 162.074 30.2383C162.121 30.4506 162.082 30.673 161.967 30.8572C161.872 31.0096 161.727 31.1245 161.557 31.1828Z" fill="#101010"/>
<path d="M182.117 32.3177C181.994 32.3269 181.87 32.3073 181.755 32.2605C181.641 32.2137 181.538 32.1409 181.457 32.0479C178.461 28.6617 173.726 30.5129 173.521 30.5874C173.425 30.628 173.322 30.649 173.217 30.6489C173.112 30.6489 173.009 30.6279 172.913 30.5871C172.816 30.5463 172.729 30.4866 172.656 30.4116C172.584 30.3365 172.527 30.2476 172.489 30.1501C172.409 29.954 172.41 29.7341 172.492 29.5388C172.574 29.3435 172.73 29.1886 172.926 29.1082C173.168 29.0152 178.898 26.7546 182.657 30.9688C182.795 31.1282 182.866 31.336 182.852 31.5469C182.838 31.7578 182.741 31.9547 182.582 32.0944C182.459 32.2219 182.294 32.3011 182.117 32.3177Z" fill="#101010"/>
<path d="M149.279 16.6611C148.512 18.1875 147.889 19.7821 147.418 21.4241C146.937 23.0423 146.543 24.685 146.237 26.3453C145.654 29.6652 145.312 33.023 145.214 36.3923C145.149 38.076 145.13 39.7691 145.158 41.4529V44.0112C145.158 44.8391 145.232 45.6764 145.307 46.5043C145.439 48.1691 145.731 49.8172 146.181 51.4255C146.577 53.0615 147.429 54.5517 148.637 55.7234C147.866 55.3234 147.192 54.758 146.665 54.0675C146.117 53.3666 145.652 52.6049 145.279 51.7976C144.561 50.1811 144.048 48.4809 143.753 46.7369C143.581 45.8735 143.46 45.0006 143.39 44.1228L143.195 41.5367C143.083 39.8064 143.083 38.0667 143.139 36.3271C143.247 32.8327 143.768 29.3634 144.693 25.9918C145.158 24.3076 145.762 22.6647 146.497 21.0799C147.206 19.48 148.143 17.9915 149.279 16.6611Z" fill="white"/>
<path d="M310.272 80.19C311.872 80.19 312.132 77.8364 312.132 77.8364C313.37 68.6267 311.1 58.0123 309.704 53.2307C308.309 48.4491 309.462 46.7188 309.462 46.7188C304.681 47.5188 303.564 50.598 303.564 50.598C303.564 50.598 309.304 55.575 308.923 78.683C308.892 78.8743 308.905 79.0701 308.959 79.256C309.014 79.442 309.109 79.6134 309.238 79.7578C309.368 79.9021 309.527 80.0159 309.706 80.0907C309.885 80.1654 310.078 80.1994 310.272 80.19Z" fill="#392B54"/>
<path d="M262.325 80.19C260.724 80.19 260.464 77.8364 260.464 77.8364C259.227 68.6267 261.497 58.0123 262.892 53.2307C264.287 48.4491 263.134 46.7188 263.134 46.7188C267.925 47.5188 269.032 50.598 269.032 50.598C269.032 50.598 263.292 55.575 263.673 78.683C263.704 78.8743 263.692 79.0701 263.637 79.256C263.583 79.442 263.487 79.6134 263.358 79.7578C263.229 79.9021 263.069 80.0159 262.89 80.0907C262.711 80.1654 262.518 80.1994 262.325 80.19Z" fill="#392B54"/>
<path d="M329.852 25.4434H329.414C328.834 25.4434 328.363 25.914 328.363 26.4946V34.0856C328.363 34.6662 328.834 35.1368 329.414 35.1368H329.852C330.432 35.1368 330.903 34.6662 330.903 34.0856V26.4946C330.903 25.914 330.432 25.4434 329.852 25.4434Z" fill="#392B54"/>
<path d="M331.025 31.2949H328.253C326.341 31.2949 324.792 32.8443 324.792 34.7555V37.5278C324.792 39.439 326.341 40.9884 328.253 40.9884H331.025C332.936 40.9884 334.485 39.439 334.485 37.5278V34.7555C334.485 32.8443 332.936 31.2949 331.025 31.2949Z" fill="#392B54"/>
<path d="M330.431 27.1647L334.776 28.9509C335.797 29.3698 336.911 29.5079 338.004 29.3509L358.535 26.3368C358.567 26.3286 358.595 26.31 358.616 26.2839C358.636 26.2577 358.647 26.2256 358.647 26.1926C358.647 26.1595 358.636 26.1274 358.616 26.1013C358.595 26.0752 358.567 26.0566 358.535 26.0484H337.929C335.423 25.9998 332.921 26.2781 330.487 26.8763C330.449 26.8689 330.409 26.877 330.377 26.8988C330.345 26.9206 330.323 26.9544 330.315 26.9926C330.308 27.0309 330.316 27.0705 330.338 27.1028C330.359 27.135 330.393 27.1573 330.431 27.1647Z" fill="#392B54"/>
<path d="M328.877 27.1639L324.532 28.9501C323.508 29.3698 322.39 29.5079 321.295 29.3501L300.773 26.336C300.741 26.3278 300.713 26.3092 300.692 26.2831C300.672 26.257 300.661 26.2249 300.661 26.1918C300.661 26.1588 300.672 26.1267 300.692 26.1005C300.713 26.0744 300.741 26.0558 300.773 26.0476H321.36C323.866 25.998 326.368 26.2764 328.802 26.8756C328.84 26.8657 328.881 26.8714 328.915 26.8915C328.949 26.9115 328.974 26.9443 328.984 26.9825C328.994 27.0208 328.988 27.0614 328.968 27.0954C328.948 27.1294 328.915 27.1541 328.877 27.1639Z" fill="#392B54"/>
<path d="M329.983 26.0752H329.295C328.396 26.0752 327.667 26.8041 327.667 27.7032V29.0614C327.667 29.9605 328.396 30.6894 329.295 30.6894H329.983C330.883 30.6894 331.611 29.9605 331.611 29.0614V27.7032C331.611 26.8041 330.883 26.0752 329.983 26.0752Z" fill="#392B54"/>
<path d="M244.659 25.4434H244.222C243.642 25.4434 243.171 25.914 243.171 26.4946V34.0856C243.171 34.6662 243.642 35.1368 244.222 35.1368H244.659C245.24 35.1368 245.711 34.6662 245.711 34.0856V26.4946C245.711 25.914 245.24 25.4434 244.659 25.4434Z" fill="#392B54"/>
<path d="M245.831 31.2949H243.059C241.148 31.2949 239.599 32.8443 239.599 34.7555V37.5278C239.599 39.439 241.148 40.9884 243.059 40.9884H245.831C247.743 40.9884 249.292 39.439 249.292 37.5278V34.7555C249.292 32.8443 247.743 31.2949 245.831 31.2949Z" fill="#392B54"/>
<path d="M245.228 27.1636L249.582 28.9498C250.603 29.3687 251.717 29.5068 252.81 29.3498L273.341 26.3357C273.373 26.3275 273.401 26.3089 273.422 26.2828C273.442 26.2567 273.453 26.2246 273.453 26.1915C273.453 26.1585 273.442 26.1263 273.422 26.1002C273.401 26.0741 273.373 26.0555 273.341 26.0473H252.735C250.214 25.9946 247.696 26.273 245.247 26.8753C245.208 26.8728 245.171 26.8856 245.142 26.9109C245.113 26.9362 245.096 26.9719 245.093 27.0101C245.091 27.0484 245.103 27.086 245.129 27.1148C245.154 27.1436 245.19 27.1612 245.228 27.1636Z" fill="#392B54"/>
<path d="M243.719 27.1639L239.328 28.95C238.307 29.3702 237.193 29.5084 236.1 29.35L215.569 26.3359C215.537 26.3277 215.509 26.3091 215.488 26.283C215.468 26.2569 215.457 26.2248 215.457 26.1917C215.457 26.1587 215.468 26.1266 215.488 26.1005C215.509 26.0744 215.537 26.0557 215.569 26.0476H236.184C238.69 25.9983 241.192 26.2766 243.626 26.8755C243.664 26.8632 243.706 26.8665 243.742 26.8848C243.777 26.9032 243.804 26.9349 243.817 26.9732C243.829 27.0114 243.826 27.053 243.807 27.0888C243.789 27.1245 243.757 27.1515 243.719 27.1639Z" fill="#392B54"/>
<path d="M244.791 26.0752H244.103C243.203 26.0752 242.475 26.8041 242.475 27.7032V29.0614C242.475 29.9605 243.203 30.6894 244.103 30.6894H244.791C245.69 30.6894 246.419 29.9605 246.419 29.0614V27.7032C246.419 26.8041 245.69 26.0752 244.791 26.0752Z" fill="#392B54"/>
<path d="M288.745 58.7383H282.986V64.3013H288.745V58.7383Z" fill="#889EDC"/>
<path d="M289.489 56.8125H282.233C281.493 56.8125 280.894 57.4123 280.894 58.1521V58.7289C280.894 59.4687 281.493 60.0685 282.233 60.0685H289.489C290.229 60.0685 290.829 59.4687 290.829 58.7289V58.1521C290.829 57.4123 290.229 56.8125 289.489 56.8125Z" fill="#392B54"/>
<path d="M333.66 38.3457C333.66 38.3457 326.906 37.7503 322.329 35.8339C317.39 33.7594 302.626 29.2383 287.165 29.2383C273.155 29.2383 256.94 33.7594 251.991 35.8339C247.414 37.7503 240.661 38.3457 240.661 38.3457C237.507 38.5968 237.451 41.1365 237.451 41.1365C237.451 43.9273 240.242 44.6064 240.242 44.6064H251.247C251.247 44.6064 265.676 45.4065 269.378 51.5091C273.174 57.7884 282.197 57.6116 282.197 57.6116H292.096C292.096 57.6116 300.98 57.6116 304.775 51.3695C308.496 45.2576 323.046 44.6064 323.046 44.6064H334.051C334.051 44.6064 336.888 43.8994 336.888 41.1365C336.879 41.1737 336.814 38.5968 333.66 38.3457Z" fill="#DAE9F7"/>
<path d="M315.584 44.7003C315.584 44.7003 306.477 44.198 300.235 47.4911C296.107 49.5083 291.553 50.5007 286.96 50.3843C282.393 50.5488 277.858 49.5771 273.759 47.5562C267.517 44.2445 258.41 44.7654 258.41 44.7654H252.279C255.61 45.0724 266.299 46.4585 269.406 51.5843C273.201 57.8637 282.225 57.6869 282.225 57.6869H286.876H291.732C291.732 57.6869 300.756 57.8637 304.551 51.5843C307.659 46.4585 318.347 45.0724 321.678 44.7654L315.584 44.7003Z" fill="#C2D4F5"/>
<path d="M293.919 67.1191H277.816C276.629 67.1191 275.667 68.0812 275.667 69.2681V70.189C275.667 71.3759 276.629 72.338 277.816 72.338H293.919C295.106 72.338 296.068 71.3759 296.068 70.189V69.2681C296.068 68.0812 295.106 67.1191 293.919 67.1191Z" fill="#392B54"/>
<path d="M290.68 64.2539H281.052C279.372 64.2539 278.01 65.6159 278.01 67.2959V72.0775C278.01 73.7576 279.372 75.1195 281.052 75.1195H290.68C292.36 75.1195 293.722 73.7576 293.722 72.0775V67.2959C293.722 65.6159 292.36 64.2539 290.68 64.2539Z" fill="#E7F3FF"/>
<path d="M285.87 72.0029C287.149 72.0029 288.186 70.9658 288.186 69.6865C288.186 68.4072 287.149 67.3701 285.87 67.3701C284.591 67.3701 283.554 68.4072 283.554 69.6865C283.554 70.9658 284.591 72.0029 285.87 72.0029Z" fill="#5C75C9"/>
<path d="M267.442 122.908C267.302 122.908 267.167 122.852 267.068 122.753C266.968 122.653 266.912 122.519 266.912 122.378V84.6739C266.911 84.6039 266.924 84.5344 266.95 84.4695C266.976 84.4046 267.015 84.3456 267.065 84.2961C267.114 84.2466 267.173 84.2076 267.238 84.1814C267.303 84.1552 267.372 84.1424 267.442 84.1436C267.583 84.1436 267.718 84.1995 267.817 84.2989C267.917 84.3984 267.973 84.5333 267.973 84.6739V122.359C267.974 122.43 267.961 122.501 267.935 122.567C267.909 122.632 267.871 122.693 267.821 122.744C267.772 122.795 267.713 122.835 267.648 122.864C267.583 122.892 267.513 122.907 267.442 122.908Z" fill="#C2D4F5"/>
<path d="M286.921 106.935C286.78 106.935 286.645 106.879 286.546 106.78C286.447 106.681 286.391 106.546 286.391 106.405V84.6739C286.391 84.5333 286.447 84.3984 286.546 84.2989C286.645 84.1995 286.78 84.1436 286.921 84.1436C286.991 84.1424 287.06 84.1552 287.125 84.1814C287.19 84.2076 287.249 84.2466 287.299 84.2961C287.348 84.3456 287.387 84.4046 287.413 84.4695C287.44 84.5344 287.452 84.6039 287.451 84.6739V106.405C287.452 106.475 287.44 106.545 287.413 106.61C287.387 106.674 287.348 106.733 287.299 106.783C287.249 106.832 287.19 106.871 287.125 106.898C287.06 106.924 286.991 106.937 286.921 106.935Z" fill="#C2D4F5"/>
<path d="M306.41 114.396C306.34 114.397 306.271 114.385 306.206 114.358C306.141 114.332 306.082 114.293 306.032 114.244C305.983 114.194 305.944 114.135 305.918 114.07C305.892 114.005 305.879 113.936 305.88 113.866V84.6739C305.879 84.6039 305.892 84.5344 305.918 84.4695C305.944 84.4046 305.983 84.3456 306.032 84.2961C306.082 84.2466 306.141 84.2076 306.206 84.1814C306.271 84.1552 306.34 84.1424 306.41 84.1436C306.551 84.1436 306.686 84.1995 306.785 84.2989C306.885 84.3984 306.94 84.5333 306.94 84.6739V113.866C306.94 114.007 306.885 114.141 306.785 114.241C306.686 114.34 306.551 114.396 306.41 114.396Z" fill="#C2D4F5"/>
<path d="M303.024 237.517H34.7327C34.6094 237.517 34.491 237.468 34.4038 237.381C34.3166 237.294 34.2676 237.175 34.2676 237.052C34.2676 236.929 34.3166 236.81 34.4038 236.723C34.491 236.636 34.6094 236.587 34.7327 236.587H303.024C303.147 236.587 303.266 236.636 303.353 236.723C303.44 236.81 303.489 236.929 303.489 237.052C303.489 237.175 303.44 237.294 303.353 237.381C303.266 237.468 303.147 237.517 303.024 237.517Z" fill="#3B1443"/>
<path d="M92.4678 206.921C98.4215 216.623 139.205 229.07 139.205 229.07L158.322 223.052L108.236 186.482L92.4678 206.921Z" fill="#DB8578"/>
<path d="M145.809 214.28L157.903 205.043C160.004 202.901 162.647 201.371 165.55 200.615C170.155 199.545 176.229 198.187 176.229 198.187C176.229 198.187 179.355 201.638 171.643 204.559C171.643 204.559 160.536 208.568 161.968 218.122C163.401 227.676 171.95 230.216 181.597 229.174C182.146 229.097 182.705 229.202 183.189 229.472C183.672 229.743 184.054 230.164 184.276 230.672C182.96 233.625 180.766 236.102 177.994 237.766C175.221 239.43 172.004 240.201 168.778 239.974C168.778 239.974 162.675 247.156 149.568 240.254C149.568 240.254 144.991 238.207 139.232 229.09L145.809 214.28Z" fill="#DB8578"/>
<path d="M116.272 192.548C116.233 192.561 116.19 192.561 116.151 192.548L108.113 186.678C108.095 186.66 108.08 186.638 108.07 186.614C108.06 186.59 108.055 186.564 108.055 186.538C108.055 186.512 108.06 186.487 108.07 186.463C108.08 186.439 108.095 186.417 108.113 186.399C108.15 186.364 108.198 186.345 108.248 186.345C108.298 186.345 108.347 186.364 108.383 186.399L116.43 192.269C116.465 192.305 116.484 192.353 116.484 192.404C116.484 192.454 116.465 192.502 116.43 192.539C116.406 192.552 116.379 192.56 116.352 192.562C116.325 192.564 116.297 192.559 116.272 192.548Z" fill="#BF513C"/>
</svg>
