<svg xmlns="http://www.w3.org/2000/svg" width="388" height="168" viewBox="0 0 388 168" version="1.1"><path d="M 44.667 6.667 C 43.230 8.104, 44.135 10.755, 47 13.500 C 48.650 15.081, 50.003 15.952, 50.007 15.437 C 50.010 14.922, 50.907 15.850, 52 17.500 C 54.657 21.512, 54.512 24.602, 51.500 28.182 C 50.125 29.816, 49 30.824, 49 30.422 C 49 29.152, 44.851 33.385, 43.535 35.998 C 42.842 37.374, 42.461 39.021, 42.690 39.658 C 42.919 40.295, 42.562 41.152, 41.898 41.563 C 41.069 42.075, 40.942 41.869, 41.492 40.905 C 42.140 39.768, 42.036 39.739, 40.947 40.750 C 40.206 41.438, 38.340 42, 36.800 42 C 35.260 42, 34 42.467, 34 43.038 C 34 43.609, 32.987 43.989, 31.750 43.882 C 27.837 43.546, 25.861 43.967, 26.500 45 C 26.851 45.567, 26.010 46, 24.559 46 C 23.152 46, 22 46.450, 22 47 C 22 47.550, 21.360 48, 20.577 48 C 17.293 48, 6.316 60.085, 7.646 62.237 C 7.982 62.780, 7.744 63.540, 7.119 63.927 C 5.141 65.149, 4.634 128.392, 6.572 132.140 C 7.417 133.773, 8.031 135.871, 7.939 136.804 C 7.619 140.017, 7.997 141.120, 9.170 140.395 C 9.952 139.911, 10.132 140.213, 9.712 141.307 C 9.367 142.206, 9.773 143.630, 10.614 144.471 C 11.455 145.312, 11.773 146.002, 11.321 146.005 C 10.870 146.008, 11.850 147.165, 13.500 148.577 C 15.150 149.989, 15.825 150.821, 15 150.425 C 14.175 150.030, 15.279 151.572, 17.453 153.853 C 21.588 158.191, 23.119 159.226, 20.998 156.250 C 20.312 155.287, 20.901 155.727, 22.308 157.228 C 23.715 158.728, 25.448 160.078, 26.159 160.228 C 26.870 160.377, 28.039 161.043, 28.755 161.708 C 29.472 162.372, 30.794 162.633, 31.693 162.288 C 32.787 161.868, 33.089 162.048, 32.605 162.830 C 31.803 164.128, 31.342 164.094, 49.486 164.089 C 56.912 164.087, 61.604 163.689, 61.819 163.043 C 62.010 162.469, 63.029 162, 64.083 162 C 65.138 162, 66 161.523, 66 160.941 C 66 160.359, 66.382 160.118, 66.849 160.407 C 68.141 161.205, 76.103 154.975, 75.349 153.756 C 74.971 153.144, 75.162 152.982, 75.799 153.376 C 77.294 154.300, 84.023 144.224, 83.252 142.215 C 82.863 141.202, 83.062 140.920, 83.830 141.395 C 84.902 142.057, 85.471 140.809, 85.084 138.646 C 84.815 137.147, 86.119 133.955, 86.822 134.390 C 87.195 134.621, 87.500 118.471, 87.500 98.501 C 87.500 78.531, 87.263 62.339, 86.973 62.517 C 86.683 62.696, 85.680 61.507, 84.743 59.874 C 83.755 58.153, 83.556 57.218, 84.270 57.648 C 84.946 58.056, 84.332 56.839, 82.905 54.945 C 80.228 51.391, 70.292 44.702, 68.936 45.540 C 68.515 45.800, 68.001 45.503, 67.794 44.881 C 67.586 44.259, 66.206 43.750, 64.727 43.750 C 63.247 43.750, 62.280 43.356, 62.577 42.875 C 62.875 42.394, 60.729 41.986, 57.809 41.968 C 48.665 41.913, 46.739 38.918, 53.282 34.927 C 59.127 31.361, 65.118 19, 61 19 C 60.450 19, 60.112 18.651, 60.250 18.225 C 61.155 15.417, 46.664 4.669, 44.667 6.667 M 52.500 48 C 52.840 48.550, 52.710 49, 52.211 49 C 51.065 49, 49.961 82.469, 50.842 90.500 C 51.500 96.500, 51.500 96.500, 59.926 96.668 C 65.264 96.775, 67.830 96.505, 66.926 95.933 C 65.503 95.033, 69.328 94.460, 74.773 94.758 C 76.023 94.827, 76.784 94.459, 76.464 93.941 C 75.917 93.056, 76.467 92.842, 79.918 92.593 C 81.060 92.511, 81.352 89.936, 81.418 79.342 C 81.463 72.109, 81.162 66.400, 80.750 66.655 C 80.338 66.910, 80 66.206, 80 65.092 C 80 63.429, 72.746 53.939, 71 53.318 C 65.660 51.419, 64.227 50.842, 62.764 50 C 61.809 49.450, 59.896 49, 58.514 49 C 57.131 49, 56 48.550, 56 48 C 56 47.450, 55.073 47, 53.941 47 C 52.809 47, 52.160 47.450, 52.500 48 M 38.500 48.458 C 37.950 48.622, 35.475 49.352, 33 50.078 C 27.022 51.833, 12.655 60.916, 15.673 61.032 C 16.128 61.049, 15.825 61.612, 15 62.282 C 14.175 62.952, 13.345 64.625, 13.155 66 C 12.965 67.375, 12.402 68.650, 11.905 68.833 C 10.644 69.298, 10.737 89, 12 89 C 12.550 89, 13 89.900, 13 91 C 13 92.100, 13.338 92.947, 13.750 92.882 C 16.184 92.497, 19.030 93.142, 18.523 93.963 C 18.196 94.492, 19.182 94.920, 20.714 94.915 C 27.511 94.889, 30 95.192, 29.510 95.983 C 29.221 96.451, 32.251 96.758, 36.242 96.667 C 43.500 96.500, 43.500 96.500, 43.783 74.500 C 44.130 47.484, 43.993 46.812, 38.500 48.458 M 54.471 54.215 C 51.222 62.683, 54.888 91.525, 59.250 91.805 C 61.862 91.972, 64 91.687, 64 91.170 C 64 90.654, 66.270 90.231, 69.044 90.231 C 77.979 90.231, 80.863 81.627, 76.399 68.285 C 74.219 61.768, 66.831 54.502, 64.627 56.707 C 64.282 57.051, 64 56.857, 64 56.275 C 64 55.693, 62.763 54.922, 61.250 54.561 C 59.737 54.200, 57.710 53.670, 56.745 53.384 C 55.779 53.096, 54.757 53.470, 54.471 54.215 M 373.696 69.317 C 373.974 69.766, 373.368 69.991, 372.350 69.817 C 371.282 69.634, 370.606 70.028, 370.750 70.750 C 370.887 71.438, 370.523 72, 369.940 72 C 367.677 72, 369.426 79.246, 372.183 81.296 C 376.579 84.564, 383 80.778, 383 74.918 C 383 72.844, 379.539 68.794, 378.583 69.750 C 378.262 70.071, 378 69.921, 378 69.417 C 378 68.912, 376.918 68.500, 375.595 68.500 C 374.273 68.500, 373.418 68.868, 373.696 69.317 M 106 72.191 C 106 72.571, 106.486 73.183, 107.081 73.550 C 107.676 73.918, 107.904 75.247, 107.588 76.505 C 107.201 78.045, 107.524 78.987, 108.576 79.391 C 109.612 79.788, 109.924 80.665, 109.502 81.995 C 109.111 83.225, 109.319 84, 110.040 84 C 110.690 84, 110.948 84.692, 110.618 85.552 C 110.245 86.525, 110.432 86.851, 111.119 86.427 C 111.840 85.981, 111.997 86.434, 111.577 87.756 C 111.166 89.054, 111.458 89.962, 112.405 90.325 C 113.245 90.648, 113.835 92.095, 113.789 93.719 C 113.674 97.757, 116.172 104.312, 117.226 102.740 C 117.763 101.939, 117.992 102.385, 117.873 104 C 117.562 108.229, 117.954 110.146, 119 109.500 C 119.596 109.131, 120 110.343, 120 112.500 C 120 115.008, 120.359 115.896, 121.170 115.395 C 121.957 114.909, 122.131 115.217, 121.701 116.336 C 121.350 117.251, 121.485 118, 122 118 C 122.515 118, 122.650 118.749, 122.299 119.664 C 121.898 120.708, 122.057 121.083, 122.725 120.670 C 124.037 119.859, 125.146 122.455, 124.362 124.500 C 124.045 125.325, 124.270 126, 124.862 126 C 125.454 126, 125.650 126.748, 125.299 127.664 C 124.832 128.880, 125.021 129.105, 126 128.500 C 126.967 127.902, 127.170 128.115, 126.729 129.263 C 126.394 130.138, 126.788 131.409, 127.605 132.087 C 128.422 132.765, 128.881 133.868, 128.624 134.538 C 127.129 138.433, 137.941 139.528, 141.166 135.808 C 142.212 134.603, 142.841 133.028, 142.565 132.308 C 142.289 131.589, 142.485 131, 143 131 C 143.515 131, 143.678 130.325, 143.362 129.500 C 143.045 128.675, 143.284 128, 143.893 128 C 144.502 128, 145 126.912, 145 125.583 C 145 124.254, 145.409 123.017, 145.908 122.833 C 146.408 122.650, 146.971 121.600, 147.158 120.500 C 147.346 119.400, 147.808 118.267, 148.185 117.981 C 148.561 117.696, 149.028 116.346, 149.221 114.981 C 149.414 113.617, 150.059 111.649, 150.655 110.608 C 151.251 109.567, 151.501 107.809, 151.212 106.702 C 150.856 105.341, 151.061 104.920, 151.842 105.403 C 152.957 106.091, 153.478 104.257, 153.052 101.150 C 152.950 100.407, 153.346 100.096, 153.933 100.459 C 154.935 101.078, 155.498 98.402, 155.052 95.150 C 154.950 94.407, 155.341 94.093, 155.922 94.452 C 156.563 94.848, 156.744 94.495, 156.382 93.552 C 156.045 92.675, 156.314 92, 157 92 C 157.668 92, 157.955 91.326, 157.638 90.500 C 157.322 89.675, 157.525 89, 158.090 89 C 158.656 89, 158.859 88.581, 158.543 88.069 C 158.226 87.557, 158.455 86.837, 159.052 86.468 C 159.648 86.099, 159.900 85.181, 159.611 84.428 C 159.322 83.674, 159.741 82.402, 160.542 81.600 C 161.344 80.799, 162 78.986, 162 77.571 C 162 76.157, 162.450 75, 163 75 C 164.724 75, 164.088 72.159, 162.250 71.653 C 156.779 70.146, 152.509 71.483, 152.185 74.805 C 152.012 76.583, 151.450 77.778, 150.935 77.460 C 150.155 76.978, 149.737 79.033, 150.085 81.638 C 150.132 81.989, 149.660 82.592, 149.035 82.978 C 148.411 83.364, 147.831 84.764, 147.748 86.090 C 147.664 87.415, 147.214 88.765, 146.748 89.090 C 146.281 89.414, 145.831 90.764, 145.748 92.090 C 145.664 93.415, 145.181 94.786, 144.673 95.136 C 144.165 95.486, 143.618 96.970, 143.458 98.434 C 143.297 99.898, 142.640 101.729, 141.997 102.504 C 141.354 103.279, 141.118 104.382, 141.473 104.956 C 141.828 105.530, 141.615 106, 141 106 C 140.385 106, 140.136 106.412, 140.447 106.915 C 140.758 107.418, 140.603 107.980, 140.102 108.165 C 139.601 108.349, 139.035 109.625, 138.845 111 C 138.655 112.375, 138.140 113.765, 137.700 114.090 C 137.260 114.414, 136.827 115.652, 136.737 116.840 C 136.418 121.080, 132 116.792, 132 112.242 C 132 111.466, 131.502 111.190, 130.842 111.597 C 130.049 112.088, 129.862 111.634, 130.249 110.156 C 130.559 108.970, 130.447 108, 130 108 C 129.553 108, 129.409 106.987, 129.680 105.750 C 130.090 103.879, 129.976 103.753, 129 105 C 128.024 106.247, 127.910 106.121, 128.320 104.250 C 128.591 103.013, 128.419 102, 127.938 102 C 127.457 102, 127.350 101.251, 127.701 100.336 C 128.102 99.292, 127.943 98.917, 127.275 99.330 C 126.689 99.692, 125.937 99.279, 125.605 98.412 C 124.774 96.248, 124.845 95.786, 125.907 96.442 C 126.405 96.751, 126.579 96.107, 126.293 95.013 C 126.007 93.918, 125.374 93.269, 124.886 93.570 C 124.084 94.066, 123.527 91.804, 123.919 89.638 C 124.005 89.163, 123.313 88.218, 122.382 87.537 C 121.324 86.764, 120.893 85.516, 121.234 84.214 C 121.566 82.944, 121.236 81.921, 120.389 81.596 C 119.547 81.273, 118.994 79.575, 118.985 77.281 C 118.973 74.381, 118.730 73.849, 117.940 75 C 117.126 76.186, 116.972 75.977, 117.205 74 C 117.490 71.589, 117.295 71.500, 111.750 71.500 C 108.588 71.500, 106 71.811, 106 72.191 M 191 88.333 C 191 88.792, 190.442 88.981, 189.759 88.753 C 189.076 88.525, 187.915 88.942, 187.178 89.679 C 186.442 90.416, 185.493 90.805, 185.070 90.543 C 184.647 90.282, 183.712 91.170, 182.991 92.518 C 182.270 93.865, 180.852 95.230, 179.840 95.551 C 178.828 95.872, 177.944 96.554, 177.875 97.067 C 177.806 97.580, 177.694 98.466, 177.625 99.036 C 177.556 99.607, 177.050 100.394, 176.500 100.786 C 175.950 101.179, 175.399 103.041, 175.277 104.923 C 175.154 106.806, 174.591 108.809, 174.027 109.373 C 172.665 110.735, 172.711 115.703, 174.094 116.558 C 174.696 116.930, 174.986 118.293, 174.739 119.587 C 174.473 120.975, 174.693 121.690, 175.274 121.331 C 175.816 120.996, 176.038 121.347, 175.767 122.111 C 174.618 125.351, 183.815 137.392, 186.617 136.317 C 187.368 136.028, 188.217 136.402, 188.502 137.146 C 189.242 139.074, 204.852 138.843, 206.091 136.887 C 206.574 136.124, 206.976 135.848, 206.985 136.273 C 206.993 136.698, 208.099 136.326, 209.443 135.445 C 211.740 133.940, 211.964 133.969, 213.184 135.922 C 214.217 137.577, 215.502 138, 219.491 138 C 224.206 138, 227.949 92.034, 223.500 88.765 C 220.563 86.607, 213 88.989, 213 92.071 C 213 92.582, 212.325 93, 211.500 93 C 210.675 93, 210 92.550, 210 92 C 210 91.450, 209.518 91, 208.929 91 C 208.339 91, 207.201 90.344, 206.400 89.542 C 205.598 88.741, 204.280 88.339, 203.471 88.649 C 202.662 88.960, 202 88.828, 202 88.357 C 202 87.886, 199.525 87.500, 196.500 87.500 C 193.475 87.500, 191 87.875, 191 88.333 M 260.389 88.179 C 258.765 88.600, 256.458 89.856, 255.261 90.972 C 252.959 93.116, 249 93.729, 249 91.941 C 249 91.359, 249.445 91.157, 249.989 91.493 C 250.540 91.834, 250.731 91.464, 250.421 90.655 C 249.721 88.832, 241.171 87.429, 239.704 88.896 C 235.118 93.482, 239.176 137.514, 244.210 137.794 C 249.500 138.088, 249.500 138.088, 249.195 124.463 C 248.993 115.447, 249.269 110.381, 250.010 109.488 C 250.626 108.746, 251.169 106.754, 251.217 105.063 C 251.370 99.676, 259.932 94.859, 264.800 97.421 C 270.458 100.399, 270.713 101.319, 270.927 119.550 C 271.159 139.171, 270.776 138, 276.952 138 C 283.106 138, 283 138.329, 283 119.301 C 283 99.407, 291.019 89.433, 299.645 98.598 C 300.825 99.851, 302.017 100.649, 302.295 100.372 C 302.573 100.094, 302.774 100.459, 302.742 101.183 C 302.520 106.272, 303.097 109.398, 304 108 C 304.647 106.998, 304.951 111.647, 304.914 122 C 304.878 132.271, 304.549 136.825, 303.938 135.500 C 303.017 133.500, 303.017 133.500, 303.272 135.500 C 303.492 137.226, 304.279 137.500, 309.014 137.500 C 314.062 137.500, 318.786 101.969, 314.123 99.073 C 313.615 98.758, 313.042 97.605, 312.850 96.512 C 312.386 93.876, 306.036 88.049, 304.338 88.701 C 303.602 88.983, 303 88.828, 303 88.357 C 303 87.886, 300.975 87.500, 298.500 87.500 C 296.025 87.500, 294 87.868, 294 88.317 C 294 88.767, 293.098 88.848, 291.995 88.498 C 290.664 88.076, 289.788 88.388, 289.390 89.425 C 289.060 90.285, 288.424 90.762, 287.975 90.485 C 287.527 90.208, 286.272 91.110, 285.186 92.490 C 282.569 95.818, 281.071 95.659, 276.976 91.618 C 275.091 89.758, 272.975 88.456, 272.274 88.725 C 271.573 88.994, 270.999 88.828, 270.997 88.357 C 270.993 87.278, 264.300 87.166, 260.389 88.179 M 339 88.331 C 339 88.816, 338.325 88.955, 337.500 88.638 C 336.675 88.322, 336 88.499, 336 89.031 C 336 89.564, 335.395 90, 334.655 90 C 332.946 90, 329.775 93.442, 330.664 94.331 C 331.032 94.699, 330.782 95, 330.108 95 C 329.434 95, 329.160 95.450, 329.500 96 C 329.840 96.550, 329.641 97, 329.059 97 C 327.292 97, 327.773 104.699, 329.583 105.394 C 330.454 105.728, 330.993 106.520, 330.782 107.154 C 330.429 108.214, 333.904 112.500, 335.117 112.500 C 335.406 112.500, 336.434 113.292, 337.402 114.259 C 338.370 115.227, 339.575 115.763, 340.081 115.450 C 340.586 115.138, 341 115.359, 341 115.941 C 341 116.523, 341.675 117, 342.500 117 C 343.325 117, 344 117.378, 344 117.839 C 344 118.301, 345.113 119.186, 346.472 119.805 C 350.277 121.539, 350.842 125.664, 347.677 128.599 C 345.177 130.917, 340.241 132.037, 341.500 130 C 341.840 129.450, 341.416 128.944, 340.559 128.875 C 337.075 128.596, 333.878 127.006, 334.565 125.895 C 335.903 123.730, 332.450 125.279, 329.833 128.018 C 325.514 132.536, 330.203 138.498, 337.906 138.284 C 340.258 138.218, 340.877 138.465, 339.906 139.079 C 338.955 139.681, 339.876 139.974, 342.750 139.985 C 345.087 139.993, 347 139.523, 347 138.941 C 347 138.359, 347.437 138.152, 347.971 138.482 C 349.199 139.241, 355 136.298, 355 134.915 C 355 134.347, 355.450 134.160, 356 134.500 C 356.550 134.840, 357 134.609, 357 133.988 C 357 133.366, 357.635 132.222, 358.411 131.446 C 359.216 130.641, 359.578 129.102, 359.253 127.861 C 358.863 126.369, 359.048 125.912, 359.842 126.403 C 360.625 126.886, 361 126.107, 361 124 C 361 122.285, 360.606 121.125, 360.125 121.423 C 359.644 121.720, 359.250 120.901, 359.250 119.603 C 359.250 117.447, 353.040 109.534, 352.970 111.602 C 352.953 112.096, 352.475 111.703, 351.908 110.729 C 351.341 109.755, 350.455 109.219, 349.939 109.538 C 349.422 109.857, 349 109.615, 349 109 C 349 108.385, 348.550 108.160, 348 108.500 C 347.450 108.840, 347 108.615, 347 108 C 347 107.385, 346.550 107.160, 346 107.500 C 345.450 107.840, 345 107.744, 345 107.286 C 345 106.829, 343.538 105.667, 341.750 104.704 C 339.500 103.491, 338.454 102.171, 338.352 100.411 C 338.270 99.014, 338.454 98.120, 338.760 98.426 C 339.066 98.732, 339.929 98.474, 340.679 97.852 C 342.396 96.426, 347 95.870, 347 97.088 C 347 97.590, 347.675 98, 348.500 98 C 349.325 98, 350 98.402, 350 98.893 C 350 101.147, 353.366 100.825, 356.023 98.316 C 359.160 95.355, 358.756 92.692, 354.987 91.496 C 353.878 91.144, 353.272 90.369, 353.640 89.773 C 354.023 89.153, 353.846 88.977, 353.224 89.362 C 352.627 89.731, 351.868 89.595, 351.537 89.060 C 351.206 88.525, 350.275 88.341, 349.468 88.651 C 348.661 88.960, 347.999 88.828, 347.997 88.357 C 347.995 87.886, 345.970 87.488, 343.497 87.474 C 341.024 87.459, 339 87.845, 339 88.331 M 370.994 88.250 C 369.985 129.474, 370.776 137.499, 375.878 137.802 C 380.967 138.103, 380.967 138.103, 380.889 114.979 C 380.847 102.261, 381.075 91.591, 381.397 91.269 C 382.814 89.853, 379.401 88, 375.378 88 C 372.970 88, 370.997 88.112, 370.994 88.250 M 195.003 97.250 C 195.001 97.662, 194.409 98, 193.687 98 C 192.073 98, 187 103.162, 187 104.805 C 187 105.462, 186.589 106, 186.087 106 C 185.586 106, 185.209 109.356, 185.250 113.459 C 185.291 117.561, 185.702 120.684, 186.163 120.399 C 186.623 120.115, 187.056 120.359, 187.125 120.941 C 187.194 121.523, 187.306 122.407, 187.375 122.904 C 187.503 123.830, 192.667 128.928, 193.524 128.974 C 193.786 128.988, 195.238 129.032, 196.750 129.070 C 199.187 129.133, 199.272 129.238, 197.500 130 C 195.942 130.669, 196.385 130.859, 199.500 130.859 C 202.615 130.859, 203.058 130.669, 201.500 130 C 199.750 129.248, 199.856 129.132, 202.350 129.070 C 215.021 128.758, 217.980 98, 205.339 98 C 204.603 98, 204 97.651, 204 97.224 C 204 96.796, 201.976 96.459, 199.503 96.474 C 197.030 96.488, 195.005 96.838, 195.003 97.250 M 12.715 100.467 C 11.223 101.557, 11.020 103.531, 11.157 115.610 C 11.268 125.389, 11.517 128.020, 12 124.500 C 12.715 119.290, 13.680 128.339, 13.103 134.841 C 12.977 136.263, 13.309 136.927, 13.948 136.532 C 14.849 135.975, 15.480 137.383, 14.750 138.321 C 14.613 138.498, 15.292 139.434, 16.259 140.402 C 17.227 141.370, 17.792 142.528, 17.515 142.976 C 17.238 143.424, 17.688 144.050, 18.515 144.367 C 19.342 144.685, 19.902 145.303, 19.759 145.742 C 19.617 146.181, 20.794 147.881, 22.377 149.520 C 23.959 151.159, 24.916 151.891, 24.503 151.146 C 23.998 150.234, 24.610 150.353, 26.377 151.511 C 27.820 152.457, 29 153.655, 29 154.174 C 29 154.693, 29.450 154.840, 30 154.500 C 30.550 154.160, 31 154.385, 31 155 C 31 155.615, 31.450 155.840, 32 155.500 C 32.550 155.160, 33 155.385, 33 156 C 33 156.615, 33.450 156.840, 34 156.500 C 34.550 156.160, 35 156.389, 35 157.008 C 35 157.702, 35.817 157.876, 37.125 157.460 C 38.294 157.089, 39.012 157.171, 38.721 157.643 C 38.430 158.114, 42.224 158.484, 47.154 158.465 C 53.209 158.442, 56.366 158.025, 56.888 157.181 C 57.312 156.494, 58.365 156.203, 59.227 156.533 C 60.197 156.906, 61.996 155.959, 63.955 154.044 C 65.694 152.344, 67.551 151.223, 68.083 151.551 C 68.615 151.880, 68.926 151.553, 68.775 150.824 C 68.624 150.096, 69.096 149.624, 69.824 149.775 C 70.553 149.926, 70.895 149.639, 70.585 149.138 C 70.276 148.637, 70.778 147.613, 71.703 146.863 C 73.146 145.693, 73.276 145.712, 72.623 147 C 72.205 147.825, 73.263 146.925, 74.975 145 C 76.748 143.007, 77.897 140.761, 77.646 139.784 C 77.404 138.840, 77.711 138.165, 78.329 138.284 C 78.947 138.403, 79.614 137.375, 79.811 136 C 80.008 134.625, 80.581 133.072, 81.085 132.550 C 81.588 132.027, 82 124.493, 82 115.806 C 82 98.184, 82.754 99.208, 71.750 101.879 C 69.688 102.380, 68 102.557, 68 102.272 C 68 101.988, 67.306 102.331, 66.457 103.035 C 64.287 104.836, 30.156 104.870, 29.045 103.072 C 28.622 102.389, 27.989 101.868, 27.638 101.915 C 24.379 102.351, 21.980 101.841, 22.597 100.842 C 23.092 100.042, 22.615 99.867, 21.049 100.277 C 19.804 100.603, 17.805 100.496, 16.607 100.041 C 15.214 99.511, 13.812 99.665, 12.715 100.467" stroke="none" fill="#040404" fill-rule="evenodd"/><path d="M 43.667 5.667 C 41.598 7.735, 43.261 11.735, 48 16.091 C 54.315 21.897, 54.333 23.698, 48.127 28.894 C 45.446 31.138, 42.676 34.368, 41.971 36.071 C 40.671 39.209, 37.662 40.999, 33.685 41.001 C 26.188 41.003, 10.516 52.202, 6.488 60.436 C 2.067 69.470, 3.037 132.579, 7.743 142.133 C 24.542 176.239, 71.490 175.178, 86.443 140.354 C 89.764 132.621, 91.695 73.196, 88.946 63.328 C 86.081 53.045, 70.929 41.949, 57.613 40.384 C 51.170 39.627, 50.797 38.945, 55.098 35.780 C 59.315 32.676, 63 26.109, 63 21.699 C 63 14.159, 47.789 1.545, 43.667 5.667 M 44.667 6.667 C 43.230 8.104, 44.135 10.755, 47 13.500 C 48.650 15.081, 50.003 15.952, 50.007 15.437 C 50.010 14.922, 50.907 15.850, 52 17.500 C 54.657 21.512, 54.512 24.602, 51.500 28.182 C 50.125 29.816, 49 30.824, 49 30.422 C 49 29.152, 44.851 33.385, 43.535 35.998 C 42.842 37.374, 42.461 39.021, 42.690 39.658 C 42.919 40.295, 42.562 41.152, 41.898 41.563 C 41.069 42.075, 40.942 41.869, 41.492 40.905 C 42.140 39.768, 42.036 39.739, 40.947 40.750 C 40.206 41.438, 38.340 42, 36.800 42 C 35.260 42, 34 42.467, 34 43.038 C 34 43.609, 32.987 43.989, 31.750 43.882 C 27.837 43.546, 25.861 43.967, 26.500 45 C 26.851 45.567, 26.010 46, 24.559 46 C 23.152 46, 22 46.450, 22 47 C 22 47.550, 21.360 48, 20.577 48 C 17.293 48, 6.316 60.085, 7.646 62.237 C 7.982 62.780, 7.744 63.540, 7.119 63.927 C 5.141 65.149, 4.634 128.392, 6.572 132.140 C 7.417 133.773, 8.031 135.871, 7.939 136.804 C 7.619 140.017, 7.997 141.120, 9.170 140.395 C 9.952 139.911, 10.132 140.213, 9.712 141.307 C 9.367 142.206, 9.773 143.630, 10.614 144.471 C 11.455 145.312, 11.773 146.002, 11.321 146.005 C 10.870 146.008, 11.850 147.165, 13.500 148.577 C 15.150 149.989, 15.825 150.821, 15 150.425 C 14.175 150.030, 15.279 151.572, 17.453 153.853 C 21.588 158.191, 23.119 159.226, 20.998 156.250 C 20.312 155.287, 20.901 155.727, 22.308 157.228 C 23.715 158.728, 25.448 160.078, 26.159 160.228 C 26.870 160.377, 28.039 161.043, 28.755 161.708 C 29.472 162.372, 30.794 162.633, 31.693 162.288 C 32.787 161.868, 33.089 162.048, 32.605 162.830 C 31.803 164.128, 31.342 164.094, 49.486 164.089 C 56.912 164.087, 61.604 163.689, 61.819 163.043 C 62.010 162.469, 63.029 162, 64.083 162 C 65.138 162, 66 161.523, 66 160.941 C 66 160.359, 66.382 160.118, 66.849 160.407 C 68.141 161.205, 76.103 154.975, 75.349 153.756 C 74.971 153.144, 75.162 152.982, 75.799 153.376 C 77.294 154.300, 84.023 144.224, 83.252 142.215 C 82.863 141.202, 83.062 140.920, 83.830 141.395 C 84.902 142.057, 85.471 140.809, 85.084 138.646 C 84.815 137.147, 86.119 133.955, 86.822 134.390 C 87.195 134.621, 87.500 118.471, 87.500 98.501 C 87.500 78.531, 87.263 62.339, 86.973 62.517 C 86.683 62.696, 85.680 61.507, 84.743 59.874 C 83.755 58.153, 83.556 57.218, 84.270 57.648 C 84.946 58.056, 84.332 56.839, 82.905 54.945 C 80.228 51.391, 70.292 44.702, 68.936 45.540 C 68.515 45.800, 68.001 45.503, 67.794 44.881 C 67.586 44.259, 66.206 43.750, 64.727 43.750 C 63.247 43.750, 62.280 43.356, 62.577 42.875 C 62.875 42.394, 60.729 41.986, 57.809 41.968 C 48.665 41.913, 46.739 38.918, 53.282 34.927 C 59.127 31.361, 65.118 19, 61 19 C 60.450 19, 60.112 18.651, 60.250 18.225 C 61.155 15.417, 46.664 4.669, 44.667 6.667 M 52.500 48 C 52.840 48.550, 52.710 49, 52.211 49 C 51.065 49, 49.961 82.469, 50.842 90.500 C 51.500 96.500, 51.500 96.500, 59.926 96.668 C 65.264 96.775, 67.830 96.505, 66.926 95.933 C 65.503 95.033, 69.328 94.460, 74.773 94.758 C 76.023 94.827, 76.784 94.459, 76.464 93.941 C 75.917 93.056, 76.467 92.842, 79.918 92.593 C 81.060 92.511, 81.352 89.936, 81.418 79.342 C 81.463 72.109, 81.162 66.400, 80.750 66.655 C 80.338 66.910, 80 66.206, 80 65.092 C 80 63.429, 72.746 53.939, 71 53.318 C 65.660 51.419, 64.227 50.842, 62.764 50 C 61.809 49.450, 59.896 49, 58.514 49 C 57.131 49, 56 48.550, 56 48 C 56 47.450, 55.073 47, 53.941 47 C 52.809 47, 52.160 47.450, 52.500 48 M 171.580 47.871 C 170.689 49.313, 170.454 72.403, 171.317 73.750 C 172.354 75.368, 184.973 75.425, 188.478 73.828 C 197.207 69.851, 197.348 54.231, 188.701 48.960 C 185.331 46.904, 172.675 46.099, 171.580 47.871 M 332.701 47.632 C 332.316 48.018, 332 49.397, 332 50.698 C 332 51.999, 331.325 53.322, 330.500 53.638 C 329.675 53.955, 329 55.080, 329 56.138 C 329 57.197, 329.675 58.322, 330.500 58.638 C 331.660 59.083, 332 61.021, 332 67.177 C 332 79.394, 336.335 78.914, 336.794 66.645 C 337.049 59.826, 337.346 58.722, 339.044 58.278 C 341.568 57.618, 341.576 54.963, 339.056 54.304 C 337.749 53.962, 337.011 52.767, 336.806 50.656 C 336.514 47.661, 334.302 46.031, 332.701 47.632 M 342 61 C 342 74.333, 342.095 75, 344 75 C 345.744 75, 346.002 74.328, 346.015 69.750 C 346.034 62.970, 347.732 59.594, 351.334 59.178 C 355.865 58.654, 357 60.433, 357 68.063 C 357 75.142, 358.141 77.474, 359.950 74.094 C 364.746 65.132, 358.796 52.878, 350.413 54.450 C 347.405 55.015, 347 54.840, 347 52.980 C 347 50.031, 345.208 47, 343.465 47 C 342.248 47, 342 49.372, 342 61 M 38.500 48.458 C 37.950 48.622, 35.475 49.352, 33 50.078 C 27.022 51.833, 12.655 60.916, 15.673 61.032 C 16.128 61.049, 15.825 61.612, 15 62.282 C 14.175 62.952, 13.345 64.625, 13.155 66 C 12.965 67.375, 12.402 68.650, 11.905 68.833 C 10.644 69.298, 10.737 89, 12 89 C 12.550 89, 13 89.900, 13 91 C 13 92.100, 13.338 92.947, 13.750 92.882 C 16.184 92.497, 19.030 93.142, 18.523 93.963 C 18.196 94.492, 19.182 94.920, 20.714 94.915 C 27.511 94.889, 30 95.192, 29.510 95.983 C 29.221 96.451, 32.251 96.758, 36.242 96.667 C 43.500 96.500, 43.500 96.500, 43.783 74.500 C 44.130 47.484, 43.993 46.812, 38.500 48.458 M 34.746 51.086 C 16.700 55.339, 3.906 87.003, 18.320 91.739 C 40.375 98.986, 41.388 98.285, 42.322 75.107 C 43.400 48.392, 43.592 49.001, 34.746 51.086 M 176 60.401 C 176 71.377, 176.343 71.845, 183.309 70.375 C 194.599 67.994, 192.510 52.601, 180.717 51.272 C 176 50.740, 176 50.740, 176 60.401 M 54.471 54.215 C 51.222 62.683, 54.888 91.525, 59.250 91.805 C 61.862 91.972, 64 91.687, 64 91.170 C 64 90.654, 66.270 90.231, 69.044 90.231 C 77.979 90.231, 80.863 81.627, 76.399 68.285 C 74.219 61.768, 66.831 54.502, 64.627 56.707 C 64.282 57.051, 64 56.857, 64 56.275 C 64 55.693, 62.763 54.922, 61.250 54.561 C 59.737 54.200, 57.710 53.670, 56.745 53.384 C 55.779 53.096, 54.757 53.470, 54.471 54.215 M 202.775 55.559 C 192.789 60.978, 199.146 77.696, 210.390 75.587 C 214.668 74.784, 218 72.313, 218 69.943 C 218 67.611, 217.319 67.551, 212.708 69.478 C 209.972 70.621, 208.472 70.712, 206.085 69.880 C 200.763 68.025, 202.690 67, 211.500 67 C 219.931 67, 220 66.980, 220 64.465 C 220 56.732, 210.073 51.599, 202.775 55.559 M 222.655 55.829 C 219.695 59.099, 220.552 62.675, 225 65.619 C 227.200 67.075, 229 68.696, 229 69.221 C 229 69.781, 227.346 69.896, 225 69.500 C 221.424 68.896, 221 69.040, 221 70.855 C 221 75.650, 227.725 77.366, 231.545 73.545 C 235.423 69.668, 233.556 63.844, 227.750 61.707 C 226.787 61.353, 226 60.599, 226 60.031 C 226 58.709, 228.687 58.685, 229.500 60 C 230.548 61.696, 233 61.104, 233 59.155 C 233 54.628, 225.828 52.322, 222.655 55.829 M 236 64.570 C 236 74.959, 236.038 75.134, 238.250 74.820 C 242.346 74.238, 242.085 54, 237.981 54 C 236.131 54, 236 54.701, 236 64.570 M 248.257 55.990 C 242.957 59.213, 241.235 66.034, 244.531 70.741 C 245.803 72.557, 245.845 73.283, 244.781 75.027 C 240.960 81.288, 258.702 84.984, 263.251 78.874 C 265.308 76.111, 266.896 61.705, 265.678 56.854 C 264.858 53.587, 253.161 53.007, 248.257 55.990 M 269.448 54.886 C 268.276 56.057, 269.071 73.814, 270.342 74.869 C 272.381 76.561, 273 75.208, 273 69.056 C 273 61.924, 274.873 59, 279.440 59 C 283.086 59, 284.453 61.349, 283.354 65.726 C 282.338 69.776, 283.854 75, 286.045 75 C 289.485 75, 288.935 58.881, 285.401 56.101 C 282.992 54.206, 271.038 53.296, 269.448 54.886 M 289.449 55.274 C 289.145 56.065, 289.999 59.140, 291.346 62.107 C 292.694 65.073, 294.509 69.222, 295.379 71.327 C 297.495 76.443, 299.721 75.842, 301.883 69.569 C 304.065 63.242, 305.335 62.909, 307.011 68.223 C 309.346 75.624, 312.194 77.251, 314.089 72.265 C 315.487 68.589, 317.959 62.896, 319.084 60.764 C 319.588 59.809, 320 57.896, 320 56.514 C 320 52.055, 317.290 53.781, 314.373 60.098 C 311.558 66.196, 311.558 66.196, 308.848 60.348 C 305.126 52.316, 304.030 52.512, 300.192 61.899 C 298.394 66.298, 298.394 66.298, 295.447 60.438 C 292.432 54.443, 290.429 52.719, 289.449 55.274 M 321.427 55.329 C 319.757 59.681, 321.524 74.503, 323.750 74.820 C 325.962 75.134, 326 74.959, 326 64.570 C 326 54.266, 323.654 49.526, 321.427 55.329 M 249.655 60.829 C 245.904 64.973, 248.638 70.200, 254.556 70.200 C 258.932 70.200, 261 68.541, 261 65.033 C 261 59.650, 253.303 56.798, 249.655 60.829 M 369.884 68.893 C 364.863 72.958, 368.413 84, 374.740 84 C 380.180 84, 383.921 80.279, 383.968 74.823 C 384.026 68.114, 375.354 64.463, 369.884 68.893 M 373.696 69.317 C 373.974 69.766, 373.368 69.991, 372.350 69.817 C 371.282 69.634, 370.606 70.028, 370.750 70.750 C 370.887 71.438, 370.523 72, 369.940 72 C 367.677 72, 369.426 79.246, 372.183 81.296 C 376.579 84.564, 383 80.778, 383 74.918 C 383 72.844, 379.539 68.794, 378.583 69.750 C 378.262 70.071, 378 69.921, 378 69.417 C 378 68.912, 376.918 68.500, 375.595 68.500 C 374.273 68.500, 373.418 68.868, 373.696 69.317 M 104.601 70.837 C 104.285 71.348, 104.882 74.181, 105.928 77.133 C 106.974 80.085, 110.536 90.150, 113.844 99.500 C 128.684 141.443, 127.381 139, 134.913 139 C 142.692 139, 141.007 142.245, 157.495 95.500 C 160.599 86.700, 163.806 77.746, 164.621 75.601 C 166.545 70.540, 165.679 69.830, 158.033 70.198 C 151.879 70.495, 151.747 70.562, 150.496 74 C 149.796 75.925, 147.081 83.575, 144.463 91 C 133.866 121.050, 136.020 120.444, 127.389 95.801 C 125.328 89.917, 123.385 85.261, 123.071 85.453 C 122.757 85.646, 122.454 84.610, 122.397 83.152 C 122.039 73.928, 108.486 64.550, 104.601 70.837 M 106 72.191 C 106 72.571, 106.486 73.183, 107.081 73.550 C 107.676 73.918, 107.904 75.247, 107.588 76.505 C 107.201 78.045, 107.524 78.987, 108.576 79.391 C 109.612 79.788, 109.924 80.665, 109.502 81.995 C 109.111 83.225, 109.319 84, 110.040 84 C 110.690 84, 110.948 84.692, 110.618 85.552 C 110.245 86.525, 110.432 86.851, 111.119 86.427 C 111.840 85.981, 111.997 86.434, 111.577 87.756 C 111.166 89.054, 111.458 89.962, 112.405 90.325 C 113.245 90.648, 113.835 92.095, 113.789 93.719 C 113.674 97.757, 116.172 104.312, 117.226 102.740 C 117.763 101.939, 117.992 102.385, 117.873 104 C 117.562 108.229, 117.954 110.146, 119 109.500 C 119.596 109.131, 120 110.343, 120 112.500 C 120 115.008, 120.359 115.896, 121.170 115.395 C 121.957 114.909, 122.131 115.217, 121.701 116.336 C 121.350 117.251, 121.485 118, 122 118 C 122.515 118, 122.650 118.749, 122.299 119.664 C 121.898 120.708, 122.057 121.083, 122.725 120.670 C 124.037 119.859, 125.146 122.455, 124.362 124.500 C 124.045 125.325, 124.270 126, 124.862 126 C 125.454 126, 125.650 126.748, 125.299 127.664 C 124.832 128.880, 125.021 129.105, 126 128.500 C 126.967 127.902, 127.170 128.115, 126.729 129.263 C 126.394 130.138, 126.788 131.409, 127.605 132.087 C 128.422 132.765, 128.881 133.868, 128.624 134.538 C 127.129 138.433, 137.941 139.528, 141.166 135.808 C 142.212 134.603, 142.841 133.028, 142.565 132.308 C 142.289 131.589, 142.485 131, 143 131 C 143.515 131, 143.678 130.325, 143.362 129.500 C 143.045 128.675, 143.284 128, 143.893 128 C 144.502 128, 145 126.912, 145 125.583 C 145 124.254, 145.409 123.017, 145.908 122.833 C 146.408 122.650, 146.971 121.600, 147.158 120.500 C 147.346 119.400, 147.808 118.267, 148.185 117.981 C 148.561 117.696, 149.028 116.346, 149.221 114.981 C 149.414 113.617, 150.059 111.649, 150.655 110.608 C 151.251 109.567, 151.501 107.809, 151.212 106.702 C 150.856 105.341, 151.061 104.920, 151.842 105.403 C 152.957 106.091, 153.478 104.257, 153.052 101.150 C 152.950 100.407, 153.346 100.096, 153.933 100.459 C 154.935 101.078, 155.498 98.402, 155.052 95.150 C 154.950 94.407, 155.341 94.093, 155.922 94.452 C 156.563 94.848, 156.744 94.495, 156.382 93.552 C 156.045 92.675, 156.314 92, 157 92 C 157.668 92, 157.955 91.326, 157.638 90.500 C 157.322 89.675, 157.525 89, 158.090 89 C 158.656 89, 158.859 88.581, 158.543 88.069 C 158.226 87.557, 158.455 86.837, 159.052 86.468 C 159.648 86.099, 159.900 85.181, 159.611 84.428 C 159.322 83.674, 159.741 82.402, 160.542 81.600 C 161.344 80.799, 162 78.986, 162 77.571 C 162 76.157, 162.450 75, 163 75 C 164.724 75, 164.088 72.159, 162.250 71.653 C 156.779 70.146, 152.509 71.483, 152.185 74.805 C 152.012 76.583, 151.450 77.778, 150.935 77.460 C 150.155 76.978, 149.737 79.033, 150.085 81.638 C 150.132 81.989, 149.660 82.592, 149.035 82.978 C 148.411 83.364, 147.831 84.764, 147.748 86.090 C 147.664 87.415, 147.214 88.765, 146.748 89.090 C 146.281 89.414, 145.831 90.764, 145.748 92.090 C 145.664 93.415, 145.181 94.786, 144.673 95.136 C 144.165 95.486, 143.618 96.970, 143.458 98.434 C 143.297 99.898, 142.640 101.729, 141.997 102.504 C 141.354 103.279, 141.118 104.382, 141.473 104.956 C 141.828 105.530, 141.615 106, 141 106 C 140.385 106, 140.136 106.412, 140.447 106.915 C 140.758 107.418, 140.603 107.980, 140.102 108.165 C 139.601 108.349, 139.035 109.625, 138.845 111 C 138.655 112.375, 138.140 113.765, 137.700 114.090 C 137.260 114.414, 136.827 115.652, 136.737 116.840 C 136.418 121.080, 132 116.792, 132 112.242 C 132 111.466, 131.502 111.190, 130.842 111.597 C 130.049 112.088, 129.862 111.634, 130.249 110.156 C 130.559 108.970, 130.447 108, 130 108 C 129.553 108, 129.409 106.987, 129.680 105.750 C 130.090 103.879, 129.976 103.753, 129 105 C 128.024 106.247, 127.910 106.121, 128.320 104.250 C 128.591 103.013, 128.419 102, 127.938 102 C 127.457 102, 127.350 101.251, 127.701 100.336 C 128.102 99.292, 127.943 98.917, 127.275 99.330 C 126.689 99.692, 125.937 99.279, 125.605 98.412 C 124.774 96.248, 124.845 95.786, 125.907 96.442 C 126.405 96.751, 126.579 96.107, 126.293 95.013 C 126.007 93.918, 125.374 93.269, 124.886 93.570 C 124.084 94.066, 123.527 91.804, 123.919 89.638 C 124.005 89.163, 123.313 88.218, 122.382 87.537 C 121.324 86.764, 120.893 85.516, 121.234 84.214 C 121.566 82.944, 121.236 81.921, 120.389 81.596 C 119.547 81.273, 118.994 79.575, 118.985 77.281 C 118.973 74.381, 118.730 73.849, 117.940 75 C 117.126 76.186, 116.972 75.977, 117.205 74 C 117.490 71.589, 117.295 71.500, 111.750 71.500 C 108.588 71.500, 106 71.811, 106 72.191 M 189.969 86.492 C 176.790 90.683, 169.150 106.685, 173.381 121.239 C 177.957 136.980, 192.814 144.894, 206.244 138.746 C 210.585 136.758, 211.857 136.523, 212.587 137.571 C 213.448 138.807, 217.079 139.331, 223.196 139.101 C 225.892 139, 225.892 139, 225.564 121.750 C 225.358 110.888, 225.495 107.277, 225.935 112 C 226.613 119.284, 226.636 119.168, 226.742 108 C 226.933 87.928, 221.771 80.562, 213.047 88.457 C 211.468 89.887, 210.918 89.851, 206.864 88.058 C 200.640 85.305, 195.268 84.807, 189.969 86.492 M 262.718 86.131 C 260.637 86.599, 257.601 87.672, 255.970 88.516 C 253.295 89.899, 252.768 89.894, 250.593 88.469 C 240.005 81.532, 237.500 86.226, 237.500 113 C 237.500 138.500, 237.500 138.500, 243.909 138.802 C 252.144 139.190, 251.966 139.573, 251.985 121.398 C 252.002 104.683, 253.274 100.683, 259.241 98.584 C 267.362 95.728, 270 101.718, 270 123.014 C 270 148.314, 283.185 147.832, 284.039 122.500 C 284.705 102.754, 286.597 98, 293.788 98 C 300.643 98, 301.374 100.051, 301.988 121 C 302.635 143.108, 314.630 149.395, 316.298 128.500 C 319.257 91.429, 307.386 75.781, 286.810 89.628 C 281.240 93.376, 280.456 93.590, 279.300 91.676 C 276.598 87.203, 269.098 84.695, 262.718 86.131 M 337.684 86.449 C 321.979 92.050, 323.105 107.434, 339.958 117.522 C 348.773 122.799, 349.962 124.136, 347.972 126.534 C 346.094 128.796, 340.793 128.298, 337.005 125.504 C 333.154 122.662, 331.542 123.184, 327.341 128.633 C 321.450 136.271, 340.115 144.365, 351.500 139.110 C 367.696 131.635, 365.169 115.154, 346.375 105.677 C 340.963 102.949, 339.427 100.973, 341.278 99.122 C 343.062 97.338, 345.614 97.805, 348.818 100.500 C 352.613 103.694, 352.970 103.658, 356.804 99.702 C 364.479 91.784, 350.294 81.951, 337.684 86.449 M 191 88.333 C 191 88.792, 190.442 88.981, 189.759 88.753 C 189.076 88.525, 187.915 88.942, 187.178 89.679 C 186.442 90.416, 185.493 90.805, 185.070 90.543 C 184.647 90.282, 183.712 91.170, 182.991 92.518 C 182.270 93.865, 180.852 95.230, 179.840 95.551 C 178.828 95.872, 177.944 96.554, 177.875 97.067 C 177.806 97.580, 177.694 98.466, 177.625 99.036 C 177.556 99.607, 177.050 100.394, 176.500 100.786 C 175.950 101.179, 175.399 103.041, 175.277 104.923 C 175.154 106.806, 174.591 108.809, 174.027 109.373 C 172.665 110.735, 172.711 115.703, 174.094 116.558 C 174.696 116.930, 174.986 118.293, 174.739 119.587 C 174.473 120.975, 174.693 121.690, 175.274 121.331 C 175.816 120.996, 176.038 121.347, 175.767 122.111 C 174.618 125.351, 183.815 137.392, 186.617 136.317 C 187.368 136.028, 188.217 136.402, 188.502 137.146 C 189.242 139.074, 204.852 138.843, 206.091 136.887 C 206.574 136.124, 206.976 135.848, 206.985 136.273 C 206.993 136.698, 208.099 136.326, 209.443 135.445 C 211.740 133.940, 211.964 133.969, 213.184 135.922 C 214.217 137.577, 215.502 138, 219.491 138 C 224.206 138, 227.949 92.034, 223.500 88.765 C 220.563 86.607, 213 88.989, 213 92.071 C 213 92.582, 212.325 93, 211.500 93 C 210.675 93, 210 92.550, 210 92 C 210 91.450, 209.518 91, 208.929 91 C 208.339 91, 207.201 90.344, 206.400 89.542 C 205.598 88.741, 204.280 88.339, 203.471 88.649 C 202.662 88.960, 202 88.828, 202 88.357 C 202 87.886, 199.525 87.500, 196.500 87.500 C 193.475 87.500, 191 87.875, 191 88.333 M 260.389 88.179 C 258.765 88.600, 256.458 89.856, 255.261 90.972 C 252.959 93.116, 249 93.729, 249 91.941 C 249 91.359, 249.445 91.157, 249.989 91.493 C 250.540 91.834, 250.731 91.464, 250.421 90.655 C 249.721 88.832, 241.171 87.429, 239.704 88.896 C 235.118 93.482, 239.176 137.514, 244.210 137.794 C 249.500 138.088, 249.500 138.088, 249.195 124.463 C 248.993 115.447, 249.269 110.381, 250.010 109.488 C 250.626 108.746, 251.169 106.754, 251.217 105.063 C 251.370 99.676, 259.932 94.859, 264.800 97.421 C 270.458 100.399, 270.713 101.319, 270.927 119.550 C 271.159 139.171, 270.776 138, 276.952 138 C 283.106 138, 283 138.329, 283 119.301 C 283 99.407, 291.019 89.433, 299.645 98.598 C 300.825 99.851, 302.017 100.649, 302.295 100.372 C 302.573 100.094, 302.774 100.459, 302.742 101.183 C 302.520 106.272, 303.097 109.398, 304 108 C 304.647 106.998, 304.951 111.647, 304.914 122 C 304.878 132.271, 304.549 136.825, 303.938 135.500 C 303.017 133.500, 303.017 133.500, 303.272 135.500 C 303.492 137.226, 304.279 137.500, 309.014 137.500 C 314.062 137.500, 318.786 101.969, 314.123 99.073 C 313.615 98.758, 313.042 97.605, 312.850 96.512 C 312.386 93.876, 306.036 88.049, 304.338 88.701 C 303.602 88.983, 303 88.828, 303 88.357 C 303 87.886, 300.975 87.500, 298.500 87.500 C 296.025 87.500, 294 87.868, 294 88.317 C 294 88.767, 293.098 88.848, 291.995 88.498 C 290.664 88.076, 289.788 88.388, 289.390 89.425 C 289.060 90.285, 288.424 90.762, 287.975 90.485 C 287.527 90.208, 286.272 91.110, 285.186 92.490 C 282.569 95.818, 281.071 95.659, 276.976 91.618 C 275.091 89.758, 272.975 88.456, 272.274 88.725 C 271.573 88.994, 270.999 88.828, 270.997 88.357 C 270.993 87.278, 264.300 87.166, 260.389 88.179 M 339 88.331 C 339 88.816, 338.325 88.955, 337.500 88.638 C 336.675 88.322, 336 88.499, 336 89.031 C 336 89.564, 335.395 90, 334.655 90 C 332.946 90, 329.775 93.442, 330.664 94.331 C 331.032 94.699, 330.782 95, 330.108 95 C 329.434 95, 329.160 95.450, 329.500 96 C 329.840 96.550, 329.641 97, 329.059 97 C 327.292 97, 327.773 104.699, 329.583 105.394 C 330.454 105.728, 330.993 106.520, 330.782 107.154 C 330.429 108.214, 333.904 112.500, 335.117 112.500 C 335.406 112.500, 336.434 113.292, 337.402 114.259 C 338.370 115.227, 339.575 115.763, 340.081 115.450 C 340.586 115.138, 341 115.359, 341 115.941 C 341 116.523, 341.675 117, 342.500 117 C 343.325 117, 344 117.378, 344 117.839 C 344 118.301, 345.113 119.186, 346.472 119.805 C 350.277 121.539, 350.842 125.664, 347.677 128.599 C 345.177 130.917, 340.241 132.037, 341.500 130 C 341.840 129.450, 341.416 128.944, 340.559 128.875 C 337.075 128.596, 333.878 127.006, 334.565 125.895 C 335.903 123.730, 332.450 125.279, 329.833 128.018 C 325.514 132.536, 330.203 138.498, 337.906 138.284 C 340.258 138.218, 340.877 138.465, 339.906 139.079 C 338.955 139.681, 339.876 139.974, 342.750 139.985 C 345.087 139.993, 347 139.523, 347 138.941 C 347 138.359, 347.437 138.152, 347.971 138.482 C 349.199 139.241, 355 136.298, 355 134.915 C 355 134.347, 355.450 134.160, 356 134.500 C 356.550 134.840, 357 134.609, 357 133.988 C 357 133.366, 357.635 132.222, 358.411 131.446 C 359.216 130.641, 359.578 129.102, 359.253 127.861 C 358.863 126.369, 359.048 125.912, 359.842 126.403 C 360.625 126.886, 361 126.107, 361 124 C 361 122.285, 360.606 121.125, 360.125 121.423 C 359.644 121.720, 359.250 120.901, 359.250 119.603 C 359.250 117.447, 353.040 109.534, 352.970 111.602 C 352.953 112.096, 352.475 111.703, 351.908 110.729 C 351.341 109.755, 350.455 109.219, 349.939 109.538 C 349.422 109.857, 349 109.615, 349 109 C 349 108.385, 348.550 108.160, 348 108.500 C 347.450 108.840, 347 108.615, 347 108 C 347 107.385, 346.550 107.160, 346 107.500 C 345.450 107.840, 345 107.744, 345 107.286 C 345 106.829, 343.538 105.667, 341.750 104.704 C 339.500 103.491, 338.454 102.171, 338.352 100.411 C 338.270 99.014, 338.454 98.120, 338.760 98.426 C 339.066 98.732, 339.929 98.474, 340.679 97.852 C 342.396 96.426, 347 95.870, 347 97.088 C 347 97.590, 347.675 98, 348.500 98 C 349.325 98, 350 98.402, 350 98.893 C 350 101.147, 353.366 100.825, 356.023 98.316 C 359.160 95.355, 358.756 92.692, 354.987 91.496 C 353.878 91.144, 353.272 90.369, 353.640 89.773 C 354.023 89.153, 353.846 88.977, 353.224 89.362 C 352.627 89.731, 351.868 89.595, 351.537 89.060 C 351.206 88.525, 350.275 88.341, 349.468 88.651 C 348.661 88.960, 347.999 88.828, 347.997 88.357 C 347.995 87.886, 345.970 87.488, 343.497 87.474 C 341.024 87.459, 339 87.845, 339 88.331 M 369.493 88.250 C 368.848 90.067, 368.461 109.348, 368.750 125.296 C 369 139.091, 369 139.091, 375.750 138.796 C 382.114 138.517, 387.415 95.025, 381.896 88.374 C 380.413 86.588, 370.120 86.485, 369.493 88.250 M 370.994 88.250 C 369.985 129.474, 370.776 137.499, 375.878 137.802 C 380.967 138.103, 380.967 138.103, 380.889 114.979 C 380.847 102.261, 381.075 91.591, 381.397 91.269 C 382.814 89.853, 379.401 88, 375.378 88 C 372.970 88, 370.997 88.112, 370.994 88.250 M 195.003 97.250 C 195.001 97.662, 194.409 98, 193.687 98 C 192.073 98, 187 103.162, 187 104.805 C 187 105.462, 186.589 106, 186.087 106 C 185.586 106, 185.209 109.356, 185.250 113.459 C 185.291 117.561, 185.702 120.684, 186.163 120.399 C 186.623 120.115, 187.056 120.359, 187.125 120.941 C 187.194 121.523, 187.306 122.407, 187.375 122.904 C 187.503 123.830, 192.667 128.928, 193.524 128.974 C 193.786 128.988, 195.238 129.032, 196.750 129.070 C 199.187 129.133, 199.272 129.238, 197.500 130 C 195.942 130.669, 196.385 130.859, 199.500 130.859 C 202.615 130.859, 203.058 130.669, 201.500 130 C 199.750 129.248, 199.856 129.132, 202.350 129.070 C 215.021 128.758, 217.980 98, 205.339 98 C 204.603 98, 204 97.651, 204 97.224 C 204 96.796, 201.976 96.459, 199.503 96.474 C 197.030 96.488, 195.005 96.838, 195.003 97.250 M 195 98.706 C 192.330 99.682, 188.860 103.417, 187.413 106.872 C 181.489 121.012, 197.730 135.096, 207.882 124.622 C 218.611 113.553, 208.736 93.685, 195 98.706 M 12.715 100.467 C 11.223 101.557, 11.020 103.531, 11.157 115.610 C 11.268 125.389, 11.517 128.020, 12 124.500 C 12.715 119.290, 13.680 128.339, 13.103 134.841 C 12.977 136.263, 13.309 136.927, 13.948 136.532 C 14.849 135.975, 15.480 137.383, 14.750 138.321 C 14.613 138.498, 15.292 139.434, 16.259 140.402 C 17.227 141.370, 17.792 142.528, 17.515 142.976 C 17.238 143.424, 17.688 144.050, 18.515 144.367 C 19.342 144.685, 19.902 145.303, 19.759 145.741 C 19.359 146.971, 23.794 151.353, 25.726 151.636 C 26.671 151.775, 27.952 152.581, 28.571 153.429 C 29.191 154.276, 29.991 154.676, 30.349 154.318 C 30.707 153.960, 31 154.218, 31 154.892 C 31 155.566, 31.450 155.840, 32 155.500 C 32.550 155.160, 33 155.385, 33 156 C 33 156.615, 33.450 156.840, 34 156.500 C 34.550 156.160, 35 156.389, 35 157.008 C 35 157.702, 35.817 157.876, 37.125 157.460 C 38.294 157.089, 39.012 157.171, 38.721 157.643 C 38.430 158.114, 42.224 158.484, 47.154 158.465 C 53.209 158.442, 56.366 158.025, 56.888 157.181 C 57.312 156.494, 58.377 156.207, 59.253 156.543 C 60.176 156.898, 61.684 156.316, 62.839 155.161 C 63.936 154.064, 65.168 153.467, 65.577 153.833 C 65.986 154.200, 65.997 153.938, 65.601 153.250 C 64.954 152.125, 66.087 151.540, 68.250 151.882 C 68.663 151.947, 68.888 151.438, 68.750 150.750 C 68.613 150.063, 69.063 149.613, 69.750 149.750 C 70.438 149.888, 70.888 149.438, 70.750 148.750 C 70.613 148.063, 71.044 147.606, 71.709 147.736 C 73.441 148.075, 78.332 141.309, 77.647 139.522 C 77.317 138.662, 77.579 138.125, 78.262 138.262 C 78.917 138.393, 79.614 137.375, 79.811 136 C 80.008 134.625, 80.581 133.072, 81.085 132.550 C 81.588 132.027, 82 124.493, 82 115.806 C 82 98.184, 82.754 99.208, 71.750 101.879 C 69.688 102.380, 68 102.557, 68 102.272 C 68 101.988, 67.306 102.331, 66.457 103.035 C 64.287 104.836, 30.156 104.870, 29.045 103.072 C 28.622 102.389, 27.989 101.868, 27.638 101.915 C 24.379 102.351, 21.980 101.841, 22.597 100.842 C 23.092 100.042, 22.615 99.867, 21.049 100.277 C 19.804 100.603, 17.805 100.496, 16.607 100.041 C 15.214 99.511, 13.812 99.665, 12.715 100.467 M 14.160 117.276 C 14.823 147.080, 32.495 163.307, 55.844 155.552 C 58.655 154.618, 61.485 154.182, 62.132 154.582 C 62.869 155.037, 63.042 154.878, 62.595 154.155 C 62.203 153.520, 62.278 153, 62.761 153 C 63.244 153, 65.462 151.441, 67.688 149.535 C 69.915 147.629, 72.093 146.392, 72.529 146.785 C 72.964 147.178, 73.016 146.968, 72.644 146.319 C 72.272 145.669, 73.067 143.517, 74.411 141.536 C 75.756 139.554, 77.149 136.599, 77.507 134.967 C 77.866 133.335, 78.461 132.001, 78.829 132.001 C 79.198 132.002, 79.365 125.252, 79.200 117.001 C 79.006 107.330, 78.525 102, 77.844 102 C 77.264 102, 74.024 102.751, 70.644 103.669 C 61.947 106.031, 32.798 106.027, 25.068 103.662 C 13.563 100.142, 13.773 99.880, 14.160 117.276" stroke="none" fill="#dad9da" fill-rule="evenodd"/></svg>